<svg viewBox="0 0 937 698" fill="none" xmlns="http://www.w3.org/2000/svg">
<g clip-path="url(#clip0_1_47)">
<path d="M937 613.403H0V613.871H937V613.403Z" fill="#EBEBEB"/>
<path d="M843.113 643.544H781.046V644.012H843.113V643.544Z" fill="#EBEBEB"/>
<path d="M620.706 648.639H604.421V649.108H620.706V648.639Z" fill="#EBEBEB"/>
<path d="M779.172 626.16H743.21V626.628H779.172V626.16Z" fill="#EBEBEB"/>
<path d="M179.248 629.307H98.31V629.775H179.248V629.307Z" fill="#EBEBEB"/>
<path d="M207.808 629.307H195.945V629.775H207.808V629.307Z" fill="#EBEBEB"/>
<path d="M421.931 637.212H246.375V637.681H421.931V637.212Z" fill="#EBEBEB"/>
<path d="M444.157 529.855H82.2873C76.3842 529.855 71.5868 525.06 71.5868 519.159V10.6964C71.5868 4.79558 76.3842 0 82.2873 0H444.157C450.06 0 454.857 4.79558 454.857 10.6964V519.159C454.857 525.06 450.06 529.855 444.157 529.855ZM82.2873 0.468318C76.6466 0.468318 72.0553 5.05784 72.0553 10.6964V519.159C72.0553 524.797 76.6466 529.387 82.2873 529.387H444.157C449.797 529.387 454.389 524.797 454.389 519.159V10.6964C454.389 5.05784 449.797 0.468318 444.157 0.468318H82.2873Z" fill="#EBEBEB"/>
<path d="M849.503 529.855H487.634C481.73 529.855 476.933 525.06 476.933 519.159V10.6964C476.933 4.79558 481.73 0 487.634 0H849.503C855.406 0 860.203 4.79558 860.203 10.6964V519.159C860.203 525.06 855.406 529.855 849.503 529.855ZM487.634 0.468318C481.993 0.468318 477.402 5.05784 477.402 10.6964V519.159C477.402 524.797 481.993 529.387 487.634 529.387H849.503C855.144 529.387 859.735 524.797 859.735 519.159V10.6964C859.735 5.05784 855.144 0.468318 849.503 0.468318H487.634Z" fill="#EBEBEB"/>
<path d="M719.785 262.033C719.785 256.601 724.189 252.18 729.642 252.18C730.635 252.18 731.572 252.33 732.472 252.592C732.322 251.599 732.247 250.588 732.247 249.576C732.247 238.055 741.598 228.708 753.123 228.708C754.435 228.708 755.728 228.839 756.965 229.064C760.169 223.819 765.941 220.297 772.538 220.297C782.526 220.297 790.641 228.314 790.791 238.28C790.884 238.28 790.997 238.28 791.09 238.28C800.367 238.28 807.9 245.811 807.9 255.083C807.9 264.356 800.367 271.887 791.09 271.887H729.361C724.039 271.737 719.785 267.391 719.785 262.052V262.033Z" fill="#F0F0F0"/>
<path d="M167.629 217.543C167.629 212.111 172.033 207.69 177.487 207.69C178.48 207.69 179.417 207.84 180.316 208.102C180.166 207.109 180.091 206.097 180.091 205.086C180.091 193.565 189.443 184.218 200.968 184.218C202.28 184.218 203.573 184.349 204.809 184.574C208.014 179.328 213.786 175.807 220.382 175.807C230.371 175.807 238.485 183.824 238.635 193.79C238.729 193.79 238.841 193.79 238.935 193.79C248.211 193.79 255.745 201.321 255.745 210.593C255.745 219.866 248.211 227.397 238.935 227.397H177.205C171.883 227.247 167.629 222.901 167.629 217.562V217.543Z" fill="#F0F0F0"/>
<path d="M421.069 74.9684H385.144C385.238 74.1067 385.294 73.2262 385.294 72.3458C385.294 59.2891 374.706 48.7051 361.645 48.7051C361.363 48.7051 361.064 48.7425 360.782 48.7425C357.822 40.7999 350.176 35.1239 341.199 35.1239C329.637 35.1239 320.267 44.4902 320.267 56.0483C320.267 56.0483 320.267 56.0858 320.267 56.1045C310.016 56.5916 301.808 64.759 301.283 74.9871H300.327C294.537 74.9871 289.814 79.7265 289.814 85.4961C289.814 91.2658 294.555 96.0052 300.327 96.0052H421.069C426.86 96.0052 431.582 91.2658 431.582 85.4961C431.582 79.7265 426.86 74.9871 421.069 74.9871V74.9684Z" fill="#F0F0F0"/>
<path d="M687.233 89.992C681.611 81.0378 671.679 75.062 660.341 75.062C649.004 75.062 638.734 81.2438 633.168 90.4416C631.707 90.0295 630.17 89.8047 628.577 89.8047C619.188 89.8047 611.561 97.4102 611.561 106.814C611.561 106.814 611.561 106.814 611.561 106.833H602.585C597.918 106.833 594.095 110.654 594.095 115.319C594.095 119.983 597.918 123.805 602.585 123.805H633.543C639.184 132.646 649.06 138.547 660.323 138.547C669.205 138.547 677.245 134.894 682.998 129.012C683.541 129.05 684.066 129.087 684.61 129.087C695.46 129.087 704.268 120.302 704.268 109.437C704.268 99.4708 696.847 91.2658 687.215 89.992H687.233Z" fill="#F0F0F0"/>
<path d="M498.147 210.087C492.525 201.133 482.592 195.158 471.255 195.158C459.917 195.158 449.648 201.339 444.082 210.537C442.62 210.125 441.083 209.9 439.49 209.9C430.102 209.9 422.475 217.506 422.475 226.909C422.475 226.909 422.475 226.909 422.475 226.928H413.498C408.832 226.928 405.009 230.75 405.009 235.414C405.009 240.079 408.832 243.9 413.498 243.9H444.457C450.097 252.742 459.973 258.643 471.236 258.643C480.119 258.643 488.158 254.99 493.911 249.108C494.455 249.145 494.98 249.183 495.523 249.183C506.374 249.183 515.181 240.397 515.181 229.532C515.181 219.566 507.76 211.361 498.128 210.087H498.147Z" fill="#F0F0F0"/>
<path d="M105.769 613.122V523.58H113.414V480.925H124.621V332.6H140.812V313.455L175.35 297.345V278.05H180.148V332.6H186.838V480.925H193.547V402.922H211.743V362.74H216.803V480.925H230.633V435.948H239.722V424.465H260.786V385.22H272.311V357.477H286.497V317.033H291.557V357.477H305.724V385.22H317.268V424.465H338.332V435.948H347.421V480.925H358.215V424.465H379.279V302.927H385.969V289.533H430.964V302.927H440.54V390.971H478.826V399.588H493.199V406.275H478.826V440.725H519.042V325.893H527.662V301.484H546.327V214.883H551.593V301.484H564.992V325.893H643.569V317.857H648.348V372.407H655.057V373.362H659.086V427.912H665.776V442.748H679.943V402.548H685.022V498.253H690.663V458.053H695.741V520.732H698.833V475.755H707.922V464.272H728.986V425.046H740.53V397.284H754.697V356.858H759.757V397.284H773.943V425.046H785.468V464.272H806.532V475.755H815.64V519.777H817.27V520.732H821.768V613.122H105.769Z" fill="#E6E6E6"/>
<path d="M599.717 331.251H594.302V336.665H599.717V331.251Z" fill="#F0F0F0"/>
<path d="M599.717 340.355H594.302V345.769H599.717V340.355Z" fill="#F0F0F0"/>
<path d="M599.717 376.715H594.302V382.129H599.717V376.715Z" fill="#F0F0F0"/>
<path d="M599.717 385.8H594.302V391.214H599.717V385.8Z" fill="#F0F0F0"/>
<path d="M599.717 394.905H594.302V400.337H599.717V394.905Z" fill="#F0F0F0"/>
<path d="M599.717 422.179H594.302V427.593H599.717V422.179Z" fill="#F0F0F0"/>
<path d="M599.717 431.265H594.302V436.697H599.717V431.265Z" fill="#F0F0F0"/>
<path d="M591.097 367.63H585.681V373.062H591.097V367.63Z" fill="#F0F0F0"/>
<path d="M591.097 376.715H585.681V382.129H591.097V376.715Z" fill="#F0F0F0"/>
<path d="M591.097 385.8H585.681V391.214H591.097V385.8Z" fill="#F0F0F0"/>
<path d="M591.097 394.905H585.681V400.337H591.097V394.905Z" fill="#F0F0F0"/>
<path d="M591.097 403.99H585.681V409.422H591.097V403.99Z" fill="#F0F0F0"/>
<path d="M591.097 422.179H585.681V427.593H591.097V422.179Z" fill="#F0F0F0"/>
<path d="M591.097 431.265H585.681V436.697H591.097V431.265Z" fill="#F0F0F0"/>
<path d="M582.477 331.251H577.061V336.665H582.477V331.251Z" fill="#F0F0F0"/>
<path d="M582.477 340.355H577.061V345.769H582.477V340.355Z" fill="#F0F0F0"/>
<path d="M582.477 349.44H577.061V354.873H582.477V349.44Z" fill="#F0F0F0"/>
<path d="M582.477 358.526H577.061V363.958H582.477V358.526Z" fill="#F0F0F0"/>
<path d="M582.477 367.63H577.061V373.062H582.477V367.63Z" fill="#F0F0F0"/>
<path d="M582.477 376.715H577.061V382.129H582.477V376.715Z" fill="#F0F0F0"/>
<path d="M582.477 385.8H577.061V391.214H582.477V385.8Z" fill="#F0F0F0"/>
<path d="M582.477 394.905H577.061V400.337H582.477V394.905Z" fill="#F0F0F0"/>
<path d="M582.477 403.99H577.061V409.422H582.477V403.99Z" fill="#F0F0F0"/>
<path d="M582.477 413.075H577.061V418.508H582.477V413.075Z" fill="#F0F0F0"/>
<path d="M582.477 431.265H577.061V436.697H582.477V431.265Z" fill="#F0F0F0"/>
<path d="M573.875 331.251H568.459V336.665H573.875V331.251Z" fill="#F0F0F0"/>
<path d="M573.875 340.355H568.459V345.769H573.875V340.355Z" fill="#F0F0F0"/>
<path d="M573.875 349.44H568.459V354.873H573.875V349.44Z" fill="#F0F0F0"/>
<path d="M573.875 358.526H568.459V363.958H573.875V358.526Z" fill="#F0F0F0"/>
<path d="M573.875 367.63H568.459V373.062H573.875V367.63Z" fill="#F0F0F0"/>
<path d="M573.875 376.715H568.459V382.129H573.875V376.715Z" fill="#F0F0F0"/>
<path d="M573.875 385.8H568.459V391.214H573.875V385.8Z" fill="#F0F0F0"/>
<path d="M573.875 467.625H568.459V473.039H573.875V467.625Z" fill="#F0F0F0"/>
<path d="M565.255 331.251H559.839V336.665H565.255V331.251Z" fill="#F0F0F0"/>
<path d="M565.255 340.355H559.839V345.769H565.255V340.355Z" fill="#F0F0F0"/>
<path d="M565.255 349.44H559.839V354.873H565.255V349.44Z" fill="#F0F0F0"/>
<path d="M565.255 358.526H559.839V363.958H565.255V358.526Z" fill="#F0F0F0"/>
<path d="M565.255 367.63H559.839V373.062H565.255V367.63Z" fill="#F0F0F0"/>
<path d="M565.255 376.715H559.839V382.129H565.255V376.715Z" fill="#F0F0F0"/>
<path d="M565.255 385.8H559.839V391.214H565.255V385.8Z" fill="#F0F0F0"/>
<path d="M565.255 394.905H559.839V400.337H565.255V394.905Z" fill="#F0F0F0"/>
<path d="M565.255 449.436H559.839V454.849H565.255V449.436Z" fill="#F0F0F0"/>
<path d="M565.255 458.54H559.839V463.953H565.255V458.54Z" fill="#F0F0F0"/>
<path d="M565.255 467.625H559.839V473.039H565.255V467.625Z" fill="#F0F0F0"/>
<path d="M565.255 476.71H559.839V482.143H565.255V476.71Z" fill="#F0F0F0"/>
<path d="M565.255 513.089H559.839V518.503H565.255V513.089Z" fill="#F0F0F0"/>
<path d="M556.634 331.251H551.218V336.665H556.634V331.251Z" fill="#F0F0F0"/>
<path d="M556.634 340.355H551.218V345.769H556.634V340.355Z" fill="#F0F0F0"/>
<path d="M556.634 349.44H551.218V354.873H556.634V349.44Z" fill="#F0F0F0"/>
<path d="M556.634 358.526H551.218V363.958H556.634V358.526Z" fill="#F0F0F0"/>
<path d="M556.634 367.63H551.218V373.062H556.634V367.63Z" fill="#F0F0F0"/>
<path d="M556.634 376.715H551.218V382.129H556.634V376.715Z" fill="#F0F0F0"/>
<path d="M556.634 385.8H551.218V391.214H556.634V385.8Z" fill="#F0F0F0"/>
<path d="M556.634 394.905H551.218V400.337H556.634V394.905Z" fill="#F0F0F0"/>
<path d="M556.634 403.99H551.218V409.422H556.634V403.99Z" fill="#F0F0F0"/>
<path d="M556.634 413.075H551.218V418.508H556.634V413.075Z" fill="#F0F0F0"/>
<path d="M556.634 440.35H551.218V445.764H556.634V440.35Z" fill="#F0F0F0"/>
<path d="M556.634 449.436H551.218V454.849H556.634V449.436Z" fill="#F0F0F0"/>
<path d="M556.634 458.54H551.218V463.953H556.634V458.54Z" fill="#F0F0F0"/>
<path d="M556.634 467.625H551.218V473.039H556.634V467.625Z" fill="#F0F0F0"/>
<path d="M556.634 476.71H551.218V482.143H556.634V476.71Z" fill="#F0F0F0"/>
<path d="M556.634 513.089H551.218V518.503H556.634V513.089Z" fill="#F0F0F0"/>
<path d="M548.014 331.251H542.598V336.665H548.014V331.251Z" fill="#F0F0F0"/>
<path d="M548.014 340.355H542.598V345.769H548.014V340.355Z" fill="#F0F0F0"/>
<path d="M548.014 349.44H542.598V354.873H548.014V349.44Z" fill="#F0F0F0"/>
<path d="M548.014 358.526H542.598V363.958H548.014V358.526Z" fill="#F0F0F0"/>
<path d="M548.014 367.63H542.598V373.062H548.014V367.63Z" fill="#F0F0F0"/>
<path d="M548.014 376.715H542.598V382.129H548.014V376.715Z" fill="#F0F0F0"/>
<path d="M548.014 385.8H542.598V391.214H548.014V385.8Z" fill="#F0F0F0"/>
<path d="M548.014 394.905H542.598V400.337H548.014V394.905Z" fill="#F0F0F0"/>
<path d="M548.014 403.99H542.598V409.422H548.014V403.99Z" fill="#F0F0F0"/>
<path d="M548.014 413.075H542.598V418.508H548.014V413.075Z" fill="#F0F0F0"/>
<path d="M548.014 422.179H542.598V427.593H548.014V422.179Z" fill="#F0F0F0"/>
<path d="M548.014 431.265H542.598V436.697H548.014V431.265Z" fill="#F0F0F0"/>
<path d="M548.014 440.35H542.598V445.764H548.014V440.35Z" fill="#F0F0F0"/>
<path d="M548.014 449.436H542.598V454.849H548.014V449.436Z" fill="#F0F0F0"/>
<path d="M548.014 458.54H542.598V463.953H548.014V458.54Z" fill="#F0F0F0"/>
<path d="M548.014 467.625H542.598V473.039H548.014V467.625Z" fill="#F0F0F0"/>
<path d="M548.014 476.71H542.598V482.143H548.014V476.71Z" fill="#F0F0F0"/>
<path d="M548.014 485.814H542.598V491.228H548.014V485.814Z" fill="#F0F0F0"/>
<path d="M539.412 331.251H533.996V336.665H539.412V331.251Z" fill="#F0F0F0"/>
<path d="M539.412 340.355H533.996V345.769H539.412V340.355Z" fill="#F0F0F0"/>
<path d="M539.412 349.44H533.996V354.873H539.412V349.44Z" fill="#F0F0F0"/>
<path d="M539.412 358.526H533.996V363.958H539.412V358.526Z" fill="#F0F0F0"/>
<path d="M539.412 367.63H533.996V373.062H539.412V367.63Z" fill="#F0F0F0"/>
<path d="M539.412 376.715H533.996V382.129H539.412V376.715Z" fill="#F0F0F0"/>
<path d="M539.412 385.8H533.996V391.214H539.412V385.8Z" fill="#F0F0F0"/>
<path d="M539.412 394.905H533.996V400.337H539.412V394.905Z" fill="#F0F0F0"/>
<path d="M539.412 403.99H533.996V409.422H539.412V403.99Z" fill="#F0F0F0"/>
<path d="M539.412 413.075H533.996V418.508H539.412V413.075Z" fill="#F0F0F0"/>
<path d="M539.412 440.35H533.996V445.764H539.412V440.35Z" fill="#F0F0F0"/>
<path d="M539.412 449.436H533.996V454.849H539.412V449.436Z" fill="#F0F0F0"/>
<path d="M539.412 458.54H533.996V463.953H539.412V458.54Z" fill="#F0F0F0"/>
<path d="M539.412 467.625H533.996V473.039H539.412V467.625Z" fill="#F0F0F0"/>
<path d="M530.792 331.251H525.376V336.665H530.792V331.251Z" fill="#F0F0F0"/>
<path d="M530.792 340.355H525.376V345.769H530.792V340.355Z" fill="#F0F0F0"/>
<path d="M530.792 349.44H525.376V354.873H530.792V349.44Z" fill="#F0F0F0"/>
<path d="M530.792 358.526H525.376V363.958H530.792V358.526Z" fill="#F0F0F0"/>
<path d="M530.792 367.63H525.376V373.062H530.792V367.63Z" fill="#F0F0F0"/>
<path d="M530.792 376.715H525.376V382.129H530.792V376.715Z" fill="#F0F0F0"/>
<path d="M530.792 385.8H525.376V391.214H530.792V385.8Z" fill="#F0F0F0"/>
<path d="M530.792 394.905H525.376V400.337H530.792V394.905Z" fill="#F0F0F0"/>
<path d="M530.792 403.99H525.376V409.422H530.792V403.99Z" fill="#F0F0F0"/>
<path d="M530.792 413.075H525.376V418.508H530.792V413.075Z" fill="#F0F0F0"/>
<path d="M530.792 440.35H525.376V445.764H530.792V440.35Z" fill="#F0F0F0"/>
<path d="M530.792 449.436H525.376V454.849H530.792V449.436Z" fill="#F0F0F0"/>
<path d="M530.792 458.54H525.376V463.953H530.792V458.54Z" fill="#F0F0F0"/>
<path d="M433.775 307.648H428.359V313.061H433.775V307.648Z" fill="#F0F0F0"/>
<path d="M433.775 316.752H428.359V322.165H433.775V316.752Z" fill="#F0F0F0"/>
<path d="M433.775 325.837H428.359V331.251H433.775V325.837Z" fill="#F0F0F0"/>
<path d="M433.775 334.922H428.359V340.336H433.775V334.922Z" fill="#F0F0F0"/>
<path d="M433.775 344.026H428.359V349.44H433.775V344.026Z" fill="#F0F0F0"/>
<path d="M433.775 353.112H428.359V358.526H433.775V353.112Z" fill="#F0F0F0"/>
<path d="M433.775 362.197H428.359V367.611H433.775V362.197Z" fill="#F0F0F0"/>
<path d="M433.775 371.283H428.359V376.696H433.775V371.283Z" fill="#F0F0F0"/>
<path d="M433.775 398.557H428.359V403.971H433.775V398.557Z" fill="#F0F0F0"/>
<path d="M433.775 407.662H428.359V413.075H433.775V407.662Z" fill="#F0F0F0"/>
<path d="M425.173 307.648H419.738V313.061H425.173V307.648Z" fill="#F0F0F0"/>
<path d="M425.173 316.752H419.738V322.165H425.173V316.752Z" fill="#F0F0F0"/>
<path d="M425.173 325.837H419.738V331.251H425.173V325.837Z" fill="#F0F0F0"/>
<path d="M425.173 334.922H419.738V340.336H425.173V334.922Z" fill="#F0F0F0"/>
<path d="M425.173 344.026H419.738V349.44H425.173V344.026Z" fill="#F0F0F0"/>
<path d="M425.173 353.112H419.738V358.526H425.173V353.112Z" fill="#F0F0F0"/>
<path d="M425.173 362.197H419.738V367.611H425.173V362.197Z" fill="#F0F0F0"/>
<path d="M425.173 371.283H419.738V376.696H425.173V371.283Z" fill="#F0F0F0"/>
<path d="M425.173 407.662H419.738V413.075H425.173V407.662Z" fill="#F0F0F0"/>
<path d="M416.571 307.648H411.137V313.061H416.571V307.648Z" fill="#F0F0F0"/>
<path d="M416.571 316.752H411.137V322.165H416.571V316.752Z" fill="#F0F0F0"/>
<path d="M416.571 325.837H411.137V331.251H416.571V325.837Z" fill="#F0F0F0"/>
<path d="M416.571 334.922H411.137V340.336H416.571V334.922Z" fill="#F0F0F0"/>
<path d="M416.571 344.026H411.137V349.44H416.571V344.026Z" fill="#F0F0F0"/>
<path d="M416.571 353.112H411.137V358.526H416.571V353.112Z" fill="#F0F0F0"/>
<path d="M416.571 362.197H411.137V367.611H416.571V362.197Z" fill="#F0F0F0"/>
<path d="M416.571 371.283H411.137V376.696H416.571V371.283Z" fill="#F0F0F0"/>
<path d="M407.932 307.648H402.516V313.061H407.932V307.648Z" fill="#F0F0F0"/>
<path d="M407.932 316.752H402.516V322.165H407.932V316.752Z" fill="#F0F0F0"/>
<path d="M407.932 325.837H402.516V331.251H407.932V325.837Z" fill="#F0F0F0"/>
<path d="M407.932 334.922H402.516V340.336H407.932V334.922Z" fill="#F0F0F0"/>
<path d="M407.932 344.026H402.516V349.44H407.932V344.026Z" fill="#F0F0F0"/>
<path d="M407.932 353.112H402.516V358.526H407.932V353.112Z" fill="#F0F0F0"/>
<path d="M407.932 371.283H402.516V376.696H407.932V371.283Z" fill="#F0F0F0"/>
<path d="M407.932 380.387H402.516V385.819H407.932V380.387Z" fill="#F0F0F0"/>
<path d="M407.932 407.662H402.516V413.075H407.932V407.662Z" fill="#F0F0F0"/>
<path d="M407.932 416.747H402.516V422.161H407.932V416.747Z" fill="#F0F0F0"/>
<path d="M407.932 425.832H402.516V431.246H407.932V425.832Z" fill="#F0F0F0"/>
<path d="M407.932 434.936H402.516V440.35H407.932V434.936Z" fill="#F0F0F0"/>
<path d="M407.932 444.022H402.516V449.436H407.932V444.022Z" fill="#F0F0F0"/>
<path d="M407.932 453.107H402.516V458.521H407.932V453.107Z" fill="#F0F0F0"/>
<path d="M407.932 462.211H402.516V467.644H407.932V462.211Z" fill="#F0F0F0"/>
<path d="M399.312 307.648H393.896V313.061H399.312V307.648Z" fill="#F0F0F0"/>
<path d="M399.312 316.752H393.896V322.165H399.312V316.752Z" fill="#F0F0F0"/>
<path d="M399.312 325.837H393.896V331.251H399.312V325.837Z" fill="#F0F0F0"/>
<path d="M399.312 334.922H393.896V340.336H399.312V334.922Z" fill="#F0F0F0"/>
<path d="M399.312 344.026H393.896V349.44H399.312V344.026Z" fill="#F0F0F0"/>
<path d="M399.312 353.112H393.896V358.526H399.312V353.112Z" fill="#F0F0F0"/>
<path d="M399.312 380.387H393.896V385.819H399.312V380.387Z" fill="#F0F0F0"/>
<path d="M399.312 389.472H393.896V394.886H399.312V389.472Z" fill="#F0F0F0"/>
<path d="M399.312 398.557H393.896V403.971H399.312V398.557Z" fill="#F0F0F0"/>
<path d="M399.312 407.662H393.896V413.075H399.312V407.662Z" fill="#F0F0F0"/>
<path d="M399.312 416.747H393.896V422.161H399.312V416.747Z" fill="#F0F0F0"/>
<path d="M399.312 425.832H393.896V431.246H399.312V425.832Z" fill="#F0F0F0"/>
<path d="M399.312 434.936H393.896V440.35H399.312V434.936Z" fill="#F0F0F0"/>
<path d="M399.312 444.022H393.896V449.436H399.312V444.022Z" fill="#F0F0F0"/>
<path d="M399.312 453.107H393.896V458.521H399.312V453.107Z" fill="#F0F0F0"/>
<path d="M399.312 462.211H393.896V467.644H399.312V462.211Z" fill="#F0F0F0"/>
<path d="M399.312 471.297H393.896V476.71H399.312V471.297Z" fill="#F0F0F0"/>
<path d="M399.312 489.486H393.896V494.9H399.312V489.486Z" fill="#F0F0F0"/>
<path d="M390.71 307.648H385.276V313.061H390.71V307.648Z" fill="#F0F0F0"/>
<path d="M390.71 316.752H385.276V322.165H390.71V316.752Z" fill="#F0F0F0"/>
<path d="M390.71 325.837H385.276V331.251H390.71V325.837Z" fill="#F0F0F0"/>
<path d="M390.71 334.922H385.276V340.336H390.71V334.922Z" fill="#F0F0F0"/>
<path d="M390.71 344.026H385.276V349.44H390.71V344.026Z" fill="#F0F0F0"/>
<path d="M390.71 353.112H385.276V358.526H390.71V353.112Z" fill="#F0F0F0"/>
<path d="M390.71 380.387H385.276V385.819H390.71V380.387Z" fill="#F0F0F0"/>
<path d="M390.71 389.472H385.276V394.886H390.71V389.472Z" fill="#F0F0F0"/>
<path d="M390.71 398.557H385.276V403.971H390.71V398.557Z" fill="#F0F0F0"/>
<path d="M390.71 407.662H385.276V413.075H390.71V407.662Z" fill="#F0F0F0"/>
<path d="M390.71 434.936H385.276V440.35H390.71V434.936Z" fill="#F0F0F0"/>
<path d="M390.71 444.022H385.276V449.436H390.71V444.022Z" fill="#F0F0F0"/>
<path d="M390.71 453.107H385.276V458.521H390.71V453.107Z" fill="#F0F0F0"/>
<path d="M390.71 462.211H385.276V467.644H390.71V462.211Z" fill="#F0F0F0"/>
<path d="M390.71 471.297H385.276V476.71H390.71V471.297Z" fill="#F0F0F0"/>
<path d="M390.71 489.486H385.276V494.9H390.71V489.486Z" fill="#F0F0F0"/>
<path d="M390.71 498.571H385.276V503.985H390.71V498.571Z" fill="#F0F0F0"/>
<path d="M312.508 392.188H307.092V397.602H312.508V392.188Z" fill="#F0F0F0"/>
<path d="M312.508 401.274H307.092V406.687H312.508V401.274Z" fill="#F0F0F0"/>
<path d="M312.508 410.359H307.092V415.773H312.508V410.359Z" fill="#F0F0F0"/>
<path d="M312.508 419.463H307.092V424.877H312.508V419.463Z" fill="#F0F0F0"/>
<path d="M312.508 428.549H307.092V433.962H312.508V428.549Z" fill="#F0F0F0"/>
<path d="M312.508 437.634H307.092V443.048H312.508V437.634Z" fill="#F0F0F0"/>
<path d="M312.508 446.738H307.092V452.152H312.508V446.738Z" fill="#F0F0F0"/>
<path d="M312.508 474.013H307.092V479.427H312.508V474.013Z" fill="#F0F0F0"/>
<path d="M312.508 483.098H307.092V488.512H312.508V483.098Z" fill="#F0F0F0"/>
<path d="M312.508 492.184H307.092V497.597H312.508V492.184Z" fill="#F0F0F0"/>
<path d="M303.907 392.188H298.491V397.602H303.907V392.188Z" fill="#F0F0F0"/>
<path d="M303.907 401.274H298.491V406.687H303.907V401.274Z" fill="#F0F0F0"/>
<path d="M303.907 410.359H298.491V415.773H303.907V410.359Z" fill="#F0F0F0"/>
<path d="M303.907 419.463H298.491V424.877H303.907V419.463Z" fill="#F0F0F0"/>
<path d="M303.907 428.549H298.491V433.962H303.907V428.549Z" fill="#F0F0F0"/>
<path d="M303.907 437.634H298.491V443.048H303.907V437.634Z" fill="#F0F0F0"/>
<path d="M303.907 446.738H298.491V452.152H303.907V446.738Z" fill="#F0F0F0"/>
<path d="M295.286 392.188H289.87V397.602H295.286V392.188Z" fill="#F0F0F0"/>
<path d="M295.286 401.274H289.87V406.687H295.286V401.274Z" fill="#F0F0F0"/>
<path d="M295.286 410.359H289.87V415.773H295.286V410.359Z" fill="#F0F0F0"/>
<path d="M295.286 419.463H289.87V424.877H295.286V419.463Z" fill="#F0F0F0"/>
<path d="M295.286 428.549H289.87V433.962H295.286V428.549Z" fill="#F0F0F0"/>
<path d="M295.286 437.634H289.87V443.048H295.286V437.634Z" fill="#F0F0F0"/>
<path d="M295.286 446.738H289.87V452.152H295.286V446.738Z" fill="#F0F0F0"/>
<path d="M286.666 392.188H281.25V397.602H286.666V392.188Z" fill="#F0F0F0"/>
<path d="M286.666 401.274H281.25V406.687H286.666V401.274Z" fill="#F0F0F0"/>
<path d="M286.666 410.359H281.25V415.773H286.666V410.359Z" fill="#F0F0F0"/>
<path d="M286.666 419.463H281.25V424.877H286.666V419.463Z" fill="#F0F0F0"/>
<path d="M286.666 428.549H281.25V433.962H286.666V428.549Z" fill="#F0F0F0"/>
<path d="M286.666 437.634H281.25V443.048H286.666V437.634Z" fill="#F0F0F0"/>
<path d="M286.666 446.738H281.25V452.152H286.666V446.738Z" fill="#F0F0F0"/>
<path d="M286.666 455.823H281.25V461.237H286.666V455.823Z" fill="#F0F0F0"/>
<path d="M286.666 464.909H281.25V470.323H286.666V464.909Z" fill="#F0F0F0"/>
<path d="M286.666 474.013H281.25V479.427H286.666V474.013Z" fill="#F0F0F0"/>
<path d="M286.666 483.098H281.25V488.512H286.666V483.098Z" fill="#F0F0F0"/>
<path d="M278.045 392.188H272.63V397.602H278.045V392.188Z" fill="#F0F0F0"/>
<path d="M278.045 401.274H272.63V406.687H278.045V401.274Z" fill="#F0F0F0"/>
<path d="M278.045 410.359H272.63V415.773H278.045V410.359Z" fill="#F0F0F0"/>
<path d="M278.045 419.463H272.63V424.877H278.045V419.463Z" fill="#F0F0F0"/>
<path d="M278.045 428.549H272.63V433.962H278.045V428.549Z" fill="#F0F0F0"/>
<path d="M278.045 437.634H272.63V443.048H278.045V437.634Z" fill="#F0F0F0"/>
<path d="M278.045 446.738H272.63V452.152H278.045V446.738Z" fill="#F0F0F0"/>
<path d="M278.045 455.823H272.63V461.237H278.045V455.823Z" fill="#F0F0F0"/>
<path d="M278.045 464.909H272.63V470.323H278.045V464.909Z" fill="#F0F0F0"/>
<path d="M278.045 474.013H272.63V479.427H278.045V474.013Z" fill="#F0F0F0"/>
<path d="M278.045 483.098H272.63V488.512H278.045V483.098Z" fill="#F0F0F0"/>
<path d="M278.045 492.184H272.63V497.597H278.045V492.184Z" fill="#F0F0F0"/>
<path d="M278.045 519.458H272.63V524.872H278.045V519.458Z" fill="#F0F0F0"/>
<path d="M278.045 528.544H272.63V533.976H278.045V528.544Z" fill="#F0F0F0"/>
<path d="M269.444 392.188H264.028V397.602H269.444V392.188Z" fill="#F0F0F0"/>
<path d="M269.444 401.274H264.028V406.687H269.444V401.274Z" fill="#F0F0F0"/>
<path d="M269.444 410.359H264.028V415.773H269.444V410.359Z" fill="#F0F0F0"/>
<path d="M269.444 437.634H264.028V443.048H269.444V437.634Z" fill="#F0F0F0"/>
<path d="M269.444 446.738H264.028V452.152H269.444V446.738Z" fill="#F0F0F0"/>
<path d="M269.444 455.823H264.028V461.237H269.444V455.823Z" fill="#F0F0F0"/>
<path d="M269.444 464.909H264.028V470.323H269.444V464.909Z" fill="#F0F0F0"/>
<path d="M269.444 474.013H264.028V479.427H269.444V474.013Z" fill="#F0F0F0"/>
<path d="M269.444 483.098H264.028V488.512H269.444V483.098Z" fill="#F0F0F0"/>
<path d="M269.444 492.184H264.028V497.597H269.444V492.184Z" fill="#F0F0F0"/>
<path d="M269.444 519.458H264.028V524.872H269.444V519.458Z" fill="#F0F0F0"/>
<path d="M269.444 528.544H264.028V533.976H269.444V528.544Z" fill="#F0F0F0"/>
<path d="M269.444 537.648H264.028V543.08H269.444V537.648Z" fill="#F0F0F0"/>
<path d="M179.154 337.639H173.72V343.052H179.154V337.639Z" fill="#F0F0F0"/>
<path d="M179.154 346.724H173.72V352.138H179.154V346.724Z" fill="#F0F0F0"/>
<path d="M179.154 355.828H173.72V361.242H179.154V355.828Z" fill="#F0F0F0"/>
<path d="M179.154 364.913H173.72V370.327H179.154V364.913Z" fill="#F0F0F0"/>
<path d="M179.154 373.999H173.72V379.413H179.154V373.999Z" fill="#F0F0F0"/>
<path d="M179.154 383.103H173.72V388.517H179.154V383.103Z" fill="#F0F0F0"/>
<path d="M179.154 392.188H173.72V397.602H179.154V392.188Z" fill="#F0F0F0"/>
<path d="M179.154 401.274H173.72V406.687H179.154V401.274Z" fill="#F0F0F0"/>
<path d="M179.154 410.359H173.72V415.773H179.154V410.359Z" fill="#F0F0F0"/>
<path d="M179.154 419.463H173.72V424.877H179.154V419.463Z" fill="#F0F0F0"/>
<path d="M179.154 428.549H173.72V433.962H179.154V428.549Z" fill="#F0F0F0"/>
<path d="M179.154 437.634H173.72V443.048H179.154V437.634Z" fill="#F0F0F0"/>
<path d="M179.154 446.738H173.72V452.152H179.154V446.738Z" fill="#F0F0F0"/>
<path d="M179.154 455.823H173.72V461.237H179.154V455.823Z" fill="#F0F0F0"/>
<path d="M179.154 464.909H173.72V470.323H179.154V464.909Z" fill="#F0F0F0"/>
<path d="M179.154 474.013H173.72V479.427H179.154V474.013Z" fill="#F0F0F0"/>
<path d="M179.154 483.098H173.72V488.512H179.154V483.098Z" fill="#F0F0F0"/>
<path d="M179.154 492.184H173.72V497.597H179.154V492.184Z" fill="#F0F0F0"/>
<path d="M179.154 501.288H173.72V506.701H179.154V501.288Z" fill="#F0F0F0"/>
<path d="M179.154 510.373H173.72V515.787H179.154V510.373Z" fill="#F0F0F0"/>
<path d="M179.154 519.458H173.72V524.872H179.154V519.458Z" fill="#F0F0F0"/>
<path d="M179.154 528.544H173.72V533.976H179.154V528.544Z" fill="#F0F0F0"/>
<path d="M179.154 537.648H173.72V543.08H179.154V537.648Z" fill="#F0F0F0"/>
<path d="M170.534 337.639H165.099V343.052H170.534V337.639Z" fill="#F0F0F0"/>
<path d="M170.534 346.724H165.099V352.138H170.534V346.724Z" fill="#F0F0F0"/>
<path d="M170.534 355.828H165.099V361.242H170.534V355.828Z" fill="#F0F0F0"/>
<path d="M170.534 364.913H165.099V370.327H170.534V364.913Z" fill="#F0F0F0"/>
<path d="M170.534 373.999H165.099V379.413H170.534V373.999Z" fill="#F0F0F0"/>
<path d="M170.534 383.103H165.099V388.517H170.534V383.103Z" fill="#F0F0F0"/>
<path d="M170.534 392.188H165.099V397.602H170.534V392.188Z" fill="#F0F0F0"/>
<path d="M170.534 401.274H165.099V406.687H170.534V401.274Z" fill="#F0F0F0"/>
<path d="M170.534 410.359H165.099V415.773H170.534V410.359Z" fill="#F0F0F0"/>
<path d="M170.534 419.463H165.099V424.877H170.534V419.463Z" fill="#F0F0F0"/>
<path d="M170.534 428.549H165.099V433.962H170.534V428.549Z" fill="#F0F0F0"/>
<path d="M170.534 437.634H165.099V443.048H170.534V437.634Z" fill="#F0F0F0"/>
<path d="M170.534 446.738H165.099V452.152H170.534V446.738Z" fill="#F0F0F0"/>
<path d="M170.534 455.823H165.099V461.237H170.534V455.823Z" fill="#F0F0F0"/>
<path d="M170.534 464.909H165.099V470.323H170.534V464.909Z" fill="#F0F0F0"/>
<path d="M170.534 474.013H165.099V479.427H170.534V474.013Z" fill="#F0F0F0"/>
<path d="M170.534 483.098H165.099V488.512H170.534V483.098Z" fill="#F0F0F0"/>
<path d="M170.534 492.184H165.099V497.597H170.534V492.184Z" fill="#F0F0F0"/>
<path d="M170.534 501.288H165.099V506.701H170.534V501.288Z" fill="#F0F0F0"/>
<path d="M161.895 337.639H156.479V343.052H161.895V337.639Z" fill="#F0F0F0"/>
<path d="M161.895 346.724H156.479V352.138H161.895V346.724Z" fill="#F0F0F0"/>
<path d="M161.895 355.828H156.479V361.242H161.895V355.828Z" fill="#F0F0F0"/>
<path d="M161.895 364.913H156.479V370.327H161.895V364.913Z" fill="#F0F0F0"/>
<path d="M161.895 373.999H156.479V379.413H161.895V373.999Z" fill="#F0F0F0"/>
<path d="M161.895 383.103H156.479V388.517H161.895V383.103Z" fill="#F0F0F0"/>
<path d="M161.895 392.188H156.479V397.602H161.895V392.188Z" fill="#F0F0F0"/>
<path d="M161.895 401.274H156.479V406.687H161.895V401.274Z" fill="#F0F0F0"/>
<path d="M161.895 410.359H156.479V415.773H161.895V410.359Z" fill="#F0F0F0"/>
<path d="M161.895 419.463H156.479V424.877H161.895V419.463Z" fill="#F0F0F0"/>
<path d="M161.895 428.549H156.479V433.962H161.895V428.549Z" fill="#F0F0F0"/>
<path d="M161.895 437.634H156.479V443.048H161.895V437.634Z" fill="#F0F0F0"/>
<path d="M161.895 446.738H156.479V452.152H161.895V446.738Z" fill="#F0F0F0"/>
<path d="M161.895 455.823H156.479V461.237H161.895V455.823Z" fill="#F0F0F0"/>
<path d="M161.895 464.909H156.479V470.323H161.895V464.909Z" fill="#F0F0F0"/>
<path d="M161.895 474.013H156.479V479.427H161.895V474.013Z" fill="#F0F0F0"/>
<path d="M161.895 483.098H156.479V488.512H161.895V483.098Z" fill="#F0F0F0"/>
<path d="M161.895 492.184H156.479V497.597H161.895V492.184Z" fill="#F0F0F0"/>
<path d="M161.895 501.288H156.479V506.701H161.895V501.288Z" fill="#F0F0F0"/>
<path d="M153.293 337.639H147.859V343.052H153.293V337.639Z" fill="#F0F0F0"/>
<path d="M153.293 346.724H147.859V352.138H153.293V346.724Z" fill="#F0F0F0"/>
<path d="M153.293 355.828H147.859V361.242H153.293V355.828Z" fill="#F0F0F0"/>
<path d="M153.293 364.913H147.859V370.327H153.293V364.913Z" fill="#F0F0F0"/>
<path d="M153.293 373.999H147.859V379.413H153.293V373.999Z" fill="#F0F0F0"/>
<path d="M153.293 383.103H147.859V388.517H153.293V383.103Z" fill="#F0F0F0"/>
<path d="M153.293 392.188H147.859V397.602H153.293V392.188Z" fill="#F0F0F0"/>
<path d="M153.293 401.274H147.859V406.687H153.293V401.274Z" fill="#F0F0F0"/>
<path d="M153.293 410.359H147.859V415.773H153.293V410.359Z" fill="#F0F0F0"/>
<path d="M153.293 419.463H147.859V424.877H153.293V419.463Z" fill="#F0F0F0"/>
<path d="M153.293 428.549H147.859V433.962H153.293V428.549Z" fill="#F0F0F0"/>
<path d="M153.293 437.634H147.859V443.048H153.293V437.634Z" fill="#F0F0F0"/>
<path d="M153.293 446.738H147.859V452.152H153.293V446.738Z" fill="#F0F0F0"/>
<path d="M153.293 455.823H147.859V461.237H153.293V455.823Z" fill="#F0F0F0"/>
<path d="M153.293 464.909H147.859V470.323H153.293V464.909Z" fill="#F0F0F0"/>
<path d="M144.692 337.639H139.257V343.052H144.692V337.639Z" fill="#F0F0F0"/>
<path d="M144.692 346.724H139.257V352.138H144.692V346.724Z" fill="#F0F0F0"/>
<path d="M144.692 355.828H139.257V361.242H144.692V355.828Z" fill="#F0F0F0"/>
<path d="M144.692 364.913H139.257V370.327H144.692V364.913Z" fill="#F0F0F0"/>
<path d="M144.692 373.999H139.257V379.413H144.692V373.999Z" fill="#F0F0F0"/>
<path d="M144.692 383.103H139.257V388.517H144.692V383.103Z" fill="#F0F0F0"/>
<path d="M144.692 392.188H139.257V397.602H144.692V392.188Z" fill="#F0F0F0"/>
<path d="M144.692 401.274H139.257V406.687H144.692V401.274Z" fill="#F0F0F0"/>
<path d="M144.692 410.359H139.257V415.773H144.692V410.359Z" fill="#F0F0F0"/>
<path d="M144.692 419.463H139.257V424.877H144.692V419.463Z" fill="#F0F0F0"/>
<path d="M144.692 428.549H139.257V433.962H144.692V428.549Z" fill="#F0F0F0"/>
<path d="M144.692 437.634H139.257V443.048H144.692V437.634Z" fill="#F0F0F0"/>
<path d="M144.692 446.738H139.257V452.152H144.692V446.738Z" fill="#F0F0F0"/>
<path d="M136.052 337.639H130.637V343.052H136.052V337.639Z" fill="#F0F0F0"/>
<path d="M136.052 346.724H130.637V352.138H136.052V346.724Z" fill="#F0F0F0"/>
<path d="M136.052 355.828H130.637V361.242H136.052V355.828Z" fill="#F0F0F0"/>
<path d="M136.052 364.913H130.637V370.327H136.052V364.913Z" fill="#F0F0F0"/>
<path d="M136.052 373.999H130.637V379.413H136.052V373.999Z" fill="#F0F0F0"/>
<path d="M136.052 383.103H130.637V388.517H136.052V383.103Z" fill="#F0F0F0"/>
<path d="M136.052 392.188H130.637V397.602H136.052V392.188Z" fill="#F0F0F0"/>
<path d="M136.052 401.274H130.637V406.687H136.052V401.274Z" fill="#F0F0F0"/>
<path d="M136.052 410.359H130.637V415.773H136.052V410.359Z" fill="#F0F0F0"/>
<path d="M136.052 419.463H130.637V424.877H136.052V419.463Z" fill="#F0F0F0"/>
<path d="M136.052 428.549H130.637V433.962H136.052V428.549Z" fill="#F0F0F0"/>
<path d="M136.052 437.634H130.637V443.048H136.052V437.634Z" fill="#F0F0F0"/>
<path d="M769.165 403.99H763.749V409.422H769.165V403.99Z" fill="#F0F0F0"/>
<path d="M769.165 413.075H763.749V418.508H769.165V413.075Z" fill="#F0F0F0"/>
<path d="M769.165 422.179H763.749V427.593H769.165V422.179Z" fill="#F0F0F0"/>
<path d="M769.165 431.265H763.749V436.697H769.165V431.265Z" fill="#F0F0F0"/>
<path d="M769.165 440.35H763.749V445.764H769.165V440.35Z" fill="#F0F0F0"/>
<path d="M769.165 449.436H763.749V454.849H769.165V449.436Z" fill="#F0F0F0"/>
<path d="M769.165 458.54H763.749V463.953H769.165V458.54Z" fill="#F0F0F0"/>
<path d="M769.165 467.625H763.749V473.039H769.165V467.625Z" fill="#F0F0F0"/>
<path d="M769.165 476.71H763.749V482.143H769.165V476.71Z" fill="#F0F0F0"/>
<path d="M769.165 485.814H763.749V491.228H769.165V485.814Z" fill="#F0F0F0"/>
<path d="M769.165 494.9H763.749V500.332H769.165V494.9Z" fill="#F0F0F0"/>
<path d="M769.165 503.985H763.749V509.399H769.165V503.985Z" fill="#F0F0F0"/>
<path d="M769.165 513.089H763.749V518.503H769.165V513.089Z" fill="#F0F0F0"/>
<path d="M769.165 522.175H763.749V527.588H769.165V522.175Z" fill="#F0F0F0"/>
<path d="M769.165 531.26H763.749V536.674H769.165V531.26Z" fill="#F0F0F0"/>
<path d="M769.165 540.364H763.749V545.778H769.165V540.364Z" fill="#F0F0F0"/>
<path d="M769.165 549.45H763.749V554.863H769.165V549.45Z" fill="#F0F0F0"/>
<path d="M769.165 558.535H763.749V563.949H769.165V558.535Z" fill="#F0F0F0"/>
<path d="M769.165 567.62H763.749V573.034H769.165V567.62Z" fill="#F0F0F0"/>
<path d="M769.165 576.724H763.749V582.138H769.165V576.724Z" fill="#F0F0F0"/>
<path d="M760.544 403.99H755.128V409.422H760.544V403.99Z" fill="#F0F0F0"/>
<path d="M760.544 413.075H755.128V418.508H760.544V413.075Z" fill="#F0F0F0"/>
<path d="M760.544 422.179H755.128V427.593H760.544V422.179Z" fill="#F0F0F0"/>
<path d="M760.544 431.265H755.128V436.697H760.544V431.265Z" fill="#F0F0F0"/>
<path d="M760.544 440.35H755.128V445.764H760.544V440.35Z" fill="#F0F0F0"/>
<path d="M760.544 449.436H755.128V454.849H760.544V449.436Z" fill="#F0F0F0"/>
<path d="M760.544 458.54H755.128V463.953H760.544V458.54Z" fill="#F0F0F0"/>
<path d="M760.544 467.625H755.128V473.039H760.544V467.625Z" fill="#F0F0F0"/>
<path d="M760.544 476.71H755.128V482.143H760.544V476.71Z" fill="#F0F0F0"/>
<path d="M760.544 485.814H755.128V491.228H760.544V485.814Z" fill="#F0F0F0"/>
<path d="M760.544 494.9H755.128V500.332H760.544V494.9Z" fill="#F0F0F0"/>
<path d="M760.544 503.985H755.128V509.399H760.544V503.985Z" fill="#F0F0F0"/>
<path d="M760.544 513.089H755.128V518.503H760.544V513.089Z" fill="#F0F0F0"/>
<path d="M760.544 522.175H755.128V527.588H760.544V522.175Z" fill="#F0F0F0"/>
<path d="M760.544 531.26H755.128V536.674H760.544V531.26Z" fill="#F0F0F0"/>
<path d="M760.544 540.364H755.128V545.778H760.544V540.364Z" fill="#F0F0F0"/>
<path d="M760.544 549.45H755.128V554.863H760.544V549.45Z" fill="#F0F0F0"/>
<path d="M760.544 558.535H755.128V563.949H760.544V558.535Z" fill="#F0F0F0"/>
<path d="M751.924 403.99H746.508V409.422H751.924V403.99Z" fill="#F0F0F0"/>
<path d="M751.924 413.075H746.508V418.508H751.924V413.075Z" fill="#F0F0F0"/>
<path d="M751.924 422.179H746.508V427.593H751.924V422.179Z" fill="#F0F0F0"/>
<path d="M751.924 431.265H746.508V436.697H751.924V431.265Z" fill="#F0F0F0"/>
<path d="M751.924 440.35H746.508V445.764H751.924V440.35Z" fill="#F0F0F0"/>
<path d="M751.924 449.436H746.508V454.849H751.924V449.436Z" fill="#F0F0F0"/>
<path d="M751.924 458.54H746.508V463.953H751.924V458.54Z" fill="#F0F0F0"/>
<path d="M751.924 467.625H746.508V473.039H751.924V467.625Z" fill="#F0F0F0"/>
<path d="M751.924 476.71H746.508V482.143H751.924V476.71Z" fill="#F0F0F0"/>
<path d="M751.924 485.814H746.508V491.228H751.924V485.814Z" fill="#F0F0F0"/>
<path d="M751.924 494.9H746.508V500.332H751.924V494.9Z" fill="#F0F0F0"/>
<path d="M751.924 503.985H746.508V509.399H751.924V503.985Z" fill="#F0F0F0"/>
<path d="M751.924 513.089H746.508V518.503H751.924V513.089Z" fill="#F0F0F0"/>
<path d="M751.924 522.175H746.508V527.588H751.924V522.175Z" fill="#F0F0F0"/>
<path d="M751.924 531.26H746.508V536.674H751.924V531.26Z" fill="#F0F0F0"/>
<path d="M751.924 540.364H746.508V545.778H751.924V540.364Z" fill="#F0F0F0"/>
<path d="M751.924 549.45H746.508V554.863H751.924V549.45Z" fill="#F0F0F0"/>
<path d="M751.924 558.535H746.508V563.949H751.924V558.535Z" fill="#F0F0F0"/>
<path d="M801.397 470.341H795.982V475.774H801.397V470.341Z" fill="#F0F0F0"/>
<path d="M801.397 479.427H795.982V484.84H801.397V479.427Z" fill="#F0F0F0"/>
<path d="M801.397 488.512H795.982V493.926H801.397V488.512Z" fill="#F0F0F0"/>
<path d="M801.397 497.616H795.982V503.03H801.397V497.616Z" fill="#F0F0F0"/>
<path d="M801.397 506.701H795.982V512.115H801.397V506.701Z" fill="#F0F0F0"/>
<path d="M801.397 515.787H795.982V521.201H801.397V515.787Z" fill="#F0F0F0"/>
<path d="M801.397 524.891H795.982V530.305H801.397V524.891Z" fill="#F0F0F0"/>
<path d="M801.397 533.976H795.982V539.39H801.397V533.976Z" fill="#F0F0F0"/>
<path d="M801.397 543.062H795.982V548.475H801.397V543.062Z" fill="#F0F0F0"/>
<path d="M801.397 552.166H795.982V557.579H801.397V552.166Z" fill="#F0F0F0"/>
<path d="M801.397 561.251H795.982V566.665H801.397V561.251Z" fill="#F0F0F0"/>
<path d="M801.397 570.337H795.982V575.75H801.397V570.337Z" fill="#F0F0F0"/>
<path d="M801.397 579.422H795.982V584.836H801.397V579.422Z" fill="#F0F0F0"/>
<path d="M792.777 470.341H787.361V475.774H792.777V470.341Z" fill="#F0F0F0"/>
<path d="M792.777 479.427H787.361V484.84H792.777V479.427Z" fill="#F0F0F0"/>
<path d="M792.777 488.512H787.361V493.926H792.777V488.512Z" fill="#F0F0F0"/>
<path d="M792.777 497.616H787.361V503.03H792.777V497.616Z" fill="#F0F0F0"/>
<path d="M792.777 506.701H787.361V512.115H792.777V506.701Z" fill="#F0F0F0"/>
<path d="M792.777 515.787H787.361V521.201H792.777V515.787Z" fill="#F0F0F0"/>
<path d="M792.777 524.891H787.361V530.305H792.777V524.891Z" fill="#F0F0F0"/>
<path d="M792.777 533.976H787.361V539.39H792.777V533.976Z" fill="#F0F0F0"/>
<path d="M792.777 543.062H787.361V548.475H792.777V543.062Z" fill="#F0F0F0"/>
<path d="M792.777 552.166H787.361V557.579H792.777V552.166Z" fill="#F0F0F0"/>
<path d="M792.777 561.251H787.361V566.665H792.777V561.251Z" fill="#F0F0F0"/>
<path d="M792.777 570.337H787.361V575.75H792.777V570.337Z" fill="#F0F0F0"/>
<path d="M792.777 579.422H787.361V584.836H792.777V579.422Z" fill="#F0F0F0"/>
<path d="M784.157 470.341H778.741V475.774H784.157V470.341Z" fill="#F0F0F0"/>
<path d="M784.157 479.427H778.741V484.84H784.157V479.427Z" fill="#F0F0F0"/>
<path d="M784.157 488.512H778.741V493.926H784.157V488.512Z" fill="#F0F0F0"/>
<path d="M784.157 497.616H778.741V503.03H784.157V497.616Z" fill="#F0F0F0"/>
<path d="M784.157 506.701H778.741V512.115H784.157V506.701Z" fill="#F0F0F0"/>
<path d="M784.157 515.787H778.741V521.201H784.157V515.787Z" fill="#F0F0F0"/>
<path d="M784.157 524.891H778.741V530.305H784.157V524.891Z" fill="#F0F0F0"/>
<path d="M784.157 533.976H778.741V539.39H784.157V533.976Z" fill="#F0F0F0"/>
<path d="M784.157 543.062H778.741V548.475H784.157V543.062Z" fill="#F0F0F0"/>
<path d="M784.157 552.166H778.741V557.579H784.157V552.166Z" fill="#F0F0F0"/>
<path d="M784.157 561.251H778.741V566.665H784.157V561.251Z" fill="#F0F0F0"/>
<path d="M784.157 570.337H778.741V575.75H784.157V570.337Z" fill="#F0F0F0"/>
<path d="M784.157 579.422H778.741V584.836H784.157V579.422Z" fill="#F0F0F0"/>
<path d="M784.157 588.526H778.741V593.94H784.157V588.526Z" fill="#F0F0F0"/>
<path d="M736.295 473.057H730.879V478.471H736.295V473.057Z" fill="#F0F0F0"/>
<path d="M736.295 482.143H730.879V487.557H736.295V482.143Z" fill="#F0F0F0"/>
<path d="M736.295 491.228H730.879V496.642H736.295V491.228Z" fill="#F0F0F0"/>
<path d="M736.295 500.314H730.879V505.727H736.295V500.314Z" fill="#F0F0F0"/>
<path d="M736.295 509.418H730.879V514.831H736.295V509.418Z" fill="#F0F0F0"/>
<path d="M736.295 518.503H730.879V523.917H736.295V518.503Z" fill="#F0F0F0"/>
<path d="M736.295 527.588H730.879V533.002H736.295V527.588Z" fill="#F0F0F0"/>
<path d="M736.295 536.693H730.879V542.125H736.295V536.693Z" fill="#F0F0F0"/>
<path d="M736.295 545.778H730.879V551.192H736.295V545.778Z" fill="#F0F0F0"/>
<path d="M736.295 554.863H730.879V560.277H736.295V554.863Z" fill="#F0F0F0"/>
<path d="M736.295 582.138H730.879V587.552H736.295V582.138Z" fill="#F0F0F0"/>
<path d="M727.693 473.057H722.258V478.471H727.693V473.057Z" fill="#F0F0F0"/>
<path d="M727.693 482.143H722.258V487.557H727.693V482.143Z" fill="#F0F0F0"/>
<path d="M727.693 491.228H722.258V496.642H727.693V491.228Z" fill="#F0F0F0"/>
<path d="M727.693 500.314H722.258V505.727H727.693V500.314Z" fill="#F0F0F0"/>
<path d="M727.693 509.418H722.258V514.831H727.693V509.418Z" fill="#F0F0F0"/>
<path d="M727.693 518.503H722.258V523.917H727.693V518.503Z" fill="#F0F0F0"/>
<path d="M727.693 527.588H722.258V533.002H727.693V527.588Z" fill="#F0F0F0"/>
<path d="M727.693 536.693H722.258V542.125H727.693V536.693Z" fill="#F0F0F0"/>
<path d="M727.693 545.778H722.258V551.192H727.693V545.778Z" fill="#F0F0F0"/>
<path d="M727.693 573.053H722.258V578.485H727.693V573.053Z" fill="#F0F0F0"/>
<path d="M727.693 582.138H722.258V587.552H727.693V582.138Z" fill="#F0F0F0"/>
<path d="M719.091 473.057H713.657V478.471H719.091V473.057Z" fill="#F0F0F0"/>
<path d="M719.091 482.143H713.657V487.557H719.091V482.143Z" fill="#F0F0F0"/>
<path d="M719.091 491.228H713.657V496.642H719.091V491.228Z" fill="#F0F0F0"/>
<path d="M719.091 500.314H713.657V505.727H719.091V500.314Z" fill="#F0F0F0"/>
<path d="M719.091 509.418H713.657V514.831H719.091V509.418Z" fill="#F0F0F0"/>
<path d="M719.091 518.503H713.657V523.917H719.091V518.503Z" fill="#F0F0F0"/>
<path d="M719.091 527.588H713.657V533.002H719.091V527.588Z" fill="#F0F0F0"/>
<path d="M719.091 536.693H713.657V542.125H719.091V536.693Z" fill="#F0F0F0"/>
<path d="M719.091 563.967H713.657V569.4H719.091V563.967Z" fill="#F0F0F0"/>
<path d="M719.091 573.053H713.657V578.485H719.091V573.053Z" fill="#F0F0F0"/>
<path d="M719.091 582.138H713.657V587.552H719.091V582.138Z" fill="#F0F0F0"/>
<path d="M638.959 334.922H633.543V340.336H638.959V334.922Z" fill="#F0F0F0"/>
<path d="M638.959 344.026H633.543V349.44H638.959V344.026Z" fill="#F0F0F0"/>
<path d="M638.959 353.112H633.543V358.526H638.959V353.112Z" fill="#F0F0F0"/>
<path d="M638.959 362.197H633.543V367.611H638.959V362.197Z" fill="#F0F0F0"/>
<path d="M638.959 371.283H633.543V376.696H638.959V371.283Z" fill="#F0F0F0"/>
<path d="M638.959 380.387H633.543V385.819H638.959V380.387Z" fill="#F0F0F0"/>
<path d="M638.959 389.472H633.543V394.886H638.959V389.472Z" fill="#F0F0F0"/>
<path d="M638.959 398.557H633.543V403.971H638.959V398.557Z" fill="#F0F0F0"/>
<path d="M638.959 407.662H633.543V413.075H638.959V407.662Z" fill="#F0F0F0"/>
<path d="M638.959 416.747H633.543V422.161H638.959V416.747Z" fill="#F0F0F0"/>
<path d="M638.959 425.832H633.543V431.246H638.959V425.832Z" fill="#F0F0F0"/>
<path d="M638.959 434.936H633.543V440.35H638.959V434.936Z" fill="#F0F0F0"/>
<path d="M638.959 444.022H633.543V449.436H638.959V444.022Z" fill="#F0F0F0"/>
<path d="M638.959 453.107H633.543V458.521H638.959V453.107Z" fill="#F0F0F0"/>
<path d="M638.959 462.211H633.543V467.644H638.959V462.211Z" fill="#F0F0F0"/>
<path d="M638.959 471.297H633.543V476.71H638.959V471.297Z" fill="#F0F0F0"/>
<path d="M638.959 480.382H633.543V485.796H638.959V480.382Z" fill="#F0F0F0"/>
<path d="M638.959 498.571H633.543V503.985H638.959V498.571Z" fill="#F0F0F0"/>
<path d="M638.959 507.657H633.543V513.071H638.959V507.657Z" fill="#F0F0F0"/>
<path d="M638.959 516.742H633.543V522.156H638.959V516.742Z" fill="#F0F0F0"/>
<path d="M638.959 525.846H633.543V531.26H638.959V525.846Z" fill="#F0F0F0"/>
<path d="M638.959 534.932H633.543V540.345H638.959V534.932Z" fill="#F0F0F0"/>
<path d="M630.357 334.922H624.942V340.336H630.357V334.922Z" fill="#F0F0F0"/>
<path d="M630.357 344.026H624.942V349.44H630.357V344.026Z" fill="#F0F0F0"/>
<path d="M630.357 353.112H624.942V358.526H630.357V353.112Z" fill="#F0F0F0"/>
<path d="M630.357 362.197H624.942V367.611H630.357V362.197Z" fill="#F0F0F0"/>
<path d="M630.357 371.283H624.942V376.696H630.357V371.283Z" fill="#F0F0F0"/>
<path d="M630.357 380.387H624.942V385.819H630.357V380.387Z" fill="#F0F0F0"/>
<path d="M630.357 389.472H624.942V394.886H630.357V389.472Z" fill="#F0F0F0"/>
<path d="M630.357 398.557H624.942V403.971H630.357V398.557Z" fill="#F0F0F0"/>
<path d="M630.357 407.662H624.942V413.075H630.357V407.662Z" fill="#F0F0F0"/>
<path d="M630.357 416.747H624.942V422.161H630.357V416.747Z" fill="#F0F0F0"/>
<path d="M630.357 425.832H624.942V431.246H630.357V425.832Z" fill="#F0F0F0"/>
<path d="M630.357 434.936H624.942V440.35H630.357V434.936Z" fill="#F0F0F0"/>
<path d="M630.357 444.022H624.942V449.436H630.357V444.022Z" fill="#F0F0F0"/>
<path d="M630.357 453.107H624.942V458.521H630.357V453.107Z" fill="#F0F0F0"/>
<path d="M630.357 462.211H624.942V467.644H630.357V462.211Z" fill="#F0F0F0"/>
<path d="M630.357 471.297H624.942V476.71H630.357V471.297Z" fill="#F0F0F0"/>
<path d="M630.357 525.846H624.942V531.26H630.357V525.846Z" fill="#F0F0F0"/>
<path d="M630.357 534.932H624.942V540.345H630.357V534.932Z" fill="#F0F0F0"/>
<path d="M621.737 334.922H616.321V340.336H621.737V334.922Z" fill="#F0F0F0"/>
<path d="M621.737 344.026H616.321V349.44H621.737V344.026Z" fill="#F0F0F0"/>
<path d="M621.737 353.112H616.321V358.526H621.737V353.112Z" fill="#F0F0F0"/>
<path d="M621.737 362.197H616.321V367.611H621.737V362.197Z" fill="#F0F0F0"/>
<path d="M621.737 371.283H616.321V376.696H621.737V371.283Z" fill="#F0F0F0"/>
<path d="M621.737 380.387H616.321V385.819H621.737V380.387Z" fill="#F0F0F0"/>
<path d="M621.737 389.472H616.321V394.886H621.737V389.472Z" fill="#F0F0F0"/>
<path d="M621.737 398.557H616.321V403.971H621.737V398.557Z" fill="#F0F0F0"/>
<path d="M621.737 407.662H616.321V413.075H621.737V407.662Z" fill="#F0F0F0"/>
<path d="M621.737 416.747H616.321V422.161H621.737V416.747Z" fill="#F0F0F0"/>
<path d="M621.737 425.832H616.321V431.246H621.737V425.832Z" fill="#F0F0F0"/>
<path d="M621.737 434.936H616.321V440.35H621.737V434.936Z" fill="#F0F0F0"/>
<path d="M621.737 444.022H616.321V449.436H621.737V444.022Z" fill="#F0F0F0"/>
<path d="M621.737 453.107H616.321V458.521H621.737V453.107Z" fill="#F0F0F0"/>
<path d="M621.737 462.211H616.321V467.644H621.737V462.211Z" fill="#F0F0F0"/>
<path d="M621.737 471.297H616.321V476.71H621.737V471.297Z" fill="#F0F0F0"/>
<path d="M621.737 489.486H616.321V494.9H621.737V489.486Z" fill="#F0F0F0"/>
<path d="M621.737 498.571H616.321V503.985H621.737V498.571Z" fill="#F0F0F0"/>
<path d="M621.737 507.657H616.321V513.071H621.737V507.657Z" fill="#F0F0F0"/>
<path d="M621.737 516.742H616.321V522.156H621.737V516.742Z" fill="#F0F0F0"/>
<path d="M621.737 534.932H616.321V540.345H621.737V534.932Z" fill="#F0F0F0"/>
<path d="M670.255 449.436H664.82V454.849H670.255V449.436Z" fill="#F0F0F0"/>
<path d="M670.255 458.54H664.82V463.953H670.255V458.54Z" fill="#F0F0F0"/>
<path d="M670.255 467.625H664.82V473.039H670.255V467.625Z" fill="#F0F0F0"/>
<path d="M670.255 476.71H664.82V482.143H670.255V476.71Z" fill="#F0F0F0"/>
<path d="M670.255 485.814H664.82V491.228H670.255V485.814Z" fill="#F0F0F0"/>
<path d="M670.255 494.9H664.82V500.332H670.255V494.9Z" fill="#F0F0F0"/>
<path d="M670.255 503.985H664.82V509.399H670.255V503.985Z" fill="#F0F0F0"/>
<path d="M670.255 522.175H664.82V527.588H670.255V522.175Z" fill="#F0F0F0"/>
<path d="M670.255 531.26H664.82V536.674H670.255V531.26Z" fill="#F0F0F0"/>
<path d="M670.255 540.364H664.82V545.778H670.255V540.364Z" fill="#F0F0F0"/>
<path d="M670.255 549.45H664.82V554.863H670.255V549.45Z" fill="#F0F0F0"/>
<path d="M670.255 558.535H664.82V563.949H670.255V558.535Z" fill="#F0F0F0"/>
<path d="M670.255 567.62H664.82V573.034H670.255V567.62Z" fill="#F0F0F0"/>
<path d="M670.255 576.724H664.82V582.138H670.255V576.724Z" fill="#F0F0F0"/>
<path d="M670.255 585.81H664.82V591.223H670.255V585.81Z" fill="#F0F0F0"/>
<path d="M661.616 449.436H656.2V454.849H661.616V449.436Z" fill="#F0F0F0"/>
<path d="M661.616 458.54H656.2V463.953H661.616V458.54Z" fill="#F0F0F0"/>
<path d="M661.616 467.625H656.2V473.039H661.616V467.625Z" fill="#F0F0F0"/>
<path d="M661.616 476.71H656.2V482.143H661.616V476.71Z" fill="#F0F0F0"/>
<path d="M661.616 485.814H656.2V491.228H661.616V485.814Z" fill="#F0F0F0"/>
<path d="M661.616 494.9H656.2V500.332H661.616V494.9Z" fill="#F0F0F0"/>
<path d="M661.616 522.175H656.2V527.588H661.616V522.175Z" fill="#F0F0F0"/>
<path d="M661.616 531.26H656.2V536.674H661.616V531.26Z" fill="#F0F0F0"/>
<path d="M661.616 540.364H656.2V545.778H661.616V540.364Z" fill="#F0F0F0"/>
<path d="M661.616 549.45H656.2V554.863H661.616V549.45Z" fill="#F0F0F0"/>
<path d="M661.616 558.535H656.2V563.949H661.616V558.535Z" fill="#F0F0F0"/>
<path d="M661.616 567.62H656.2V573.034H661.616V567.62Z" fill="#F0F0F0"/>
<path d="M661.616 576.724H656.2V582.138H661.616V576.724Z" fill="#F0F0F0"/>
<path d="M661.616 585.81H656.2V591.223H661.616V585.81Z" fill="#F0F0F0"/>
<path d="M653.033 449.436H647.598V454.849H653.033V449.436Z" fill="#F0F0F0"/>
<path d="M653.033 458.54H647.598V463.953H653.033V458.54Z" fill="#F0F0F0"/>
<path d="M653.033 467.625H647.598V473.039H653.033V467.625Z" fill="#F0F0F0"/>
<path d="M653.033 476.71H647.598V482.143H653.033V476.71Z" fill="#F0F0F0"/>
<path d="M653.033 485.814H647.598V491.228H653.033V485.814Z" fill="#F0F0F0"/>
<path d="M653.033 494.9H647.598V500.332H653.033V494.9Z" fill="#F0F0F0"/>
<path d="M653.033 513.089H647.598V518.503H653.033V513.089Z" fill="#F0F0F0"/>
<path d="M653.033 522.175H647.598V527.588H653.033V522.175Z" fill="#F0F0F0"/>
<path d="M653.033 531.26H647.598V536.674H653.033V531.26Z" fill="#F0F0F0"/>
<path d="M653.033 540.364H647.598V545.778H653.033V540.364Z" fill="#F0F0F0"/>
<path d="M653.033 549.45H647.598V554.863H653.033V549.45Z" fill="#F0F0F0"/>
<path d="M653.033 558.535H647.598V563.949H653.033V558.535Z" fill="#F0F0F0"/>
<path d="M653.033 567.62H647.598V573.034H653.033V567.62Z" fill="#F0F0F0"/>
<path d="M653.033 576.724H647.598V582.138H653.033V576.724Z" fill="#F0F0F0"/>
<path d="M653.033 585.81H647.598V591.223H653.033V585.81Z" fill="#F0F0F0"/>
<path d="M471.442 398.557H466.026V403.971H471.442V398.557Z" fill="#F0F0F0"/>
<path d="M471.442 407.662H466.026V413.075H471.442V407.662Z" fill="#F0F0F0"/>
<path d="M471.442 416.747H466.026V422.161H471.442V416.747Z" fill="#F0F0F0"/>
<path d="M471.442 425.832H466.026V431.246H471.442V425.832Z" fill="#F0F0F0"/>
<path d="M471.442 434.936H466.026V440.35H471.442V434.936Z" fill="#F0F0F0"/>
<path d="M471.442 444.022H466.026V449.436H471.442V444.022Z" fill="#F0F0F0"/>
<path d="M471.442 453.107H466.026V458.521H471.442V453.107Z" fill="#F0F0F0"/>
<path d="M471.442 462.211H466.026V467.644H471.442V462.211Z" fill="#F0F0F0"/>
<path d="M471.442 471.297H466.026V476.71H471.442V471.297Z" fill="#F0F0F0"/>
<path d="M471.442 480.382H466.026V485.796H471.442V480.382Z" fill="#F0F0F0"/>
<path d="M471.442 489.486H466.026V494.9H471.442V489.486Z" fill="#F0F0F0"/>
<path d="M471.442 498.571H466.026V503.985H471.442V498.571Z" fill="#F0F0F0"/>
<path d="M471.442 507.657H466.026V513.071H471.442V507.657Z" fill="#F0F0F0"/>
<path d="M471.442 525.846H466.026V531.26H471.442V525.846Z" fill="#F0F0F0"/>
<path d="M471.442 534.932H466.026V540.345H471.442V534.932Z" fill="#F0F0F0"/>
<path d="M471.442 544.017H466.026V549.431H471.442V544.017Z" fill="#F0F0F0"/>
<path d="M471.442 553.121H466.026V558.535H471.442V553.121Z" fill="#F0F0F0"/>
<path d="M471.442 571.292H466.026V576.724H471.442V571.292Z" fill="#F0F0F0"/>
<path d="M471.442 580.396H466.026V585.81H471.442V580.396Z" fill="#F0F0F0"/>
<path d="M471.442 589.481H466.026V594.895H471.442V589.481Z" fill="#F0F0F0"/>
<path d="M462.822 398.557H457.406V403.971H462.822V398.557Z" fill="#F0F0F0"/>
<path d="M462.822 407.662H457.406V413.075H462.822V407.662Z" fill="#F0F0F0"/>
<path d="M462.822 416.747H457.406V422.161H462.822V416.747Z" fill="#F0F0F0"/>
<path d="M462.822 425.832H457.406V431.246H462.822V425.832Z" fill="#F0F0F0"/>
<path d="M462.822 434.936H457.406V440.35H462.822V434.936Z" fill="#F0F0F0"/>
<path d="M462.822 444.022H457.406V449.436H462.822V444.022Z" fill="#F0F0F0"/>
<path d="M462.822 453.107H457.406V458.521H462.822V453.107Z" fill="#F0F0F0"/>
<path d="M462.822 462.211H457.406V467.644H462.822V462.211Z" fill="#F0F0F0"/>
<path d="M462.822 471.297H457.406V476.71H462.822V471.297Z" fill="#F0F0F0"/>
<path d="M462.822 480.382H457.406V485.796H462.822V480.382Z" fill="#F0F0F0"/>
<path d="M462.822 489.486H457.406V494.9H462.822V489.486Z" fill="#F0F0F0"/>
<path d="M462.822 498.571H457.406V503.985H462.822V498.571Z" fill="#F0F0F0"/>
<path d="M462.822 507.657H457.406V513.071H462.822V507.657Z" fill="#F0F0F0"/>
<path d="M462.822 534.932H457.406V540.345H462.822V534.932Z" fill="#F0F0F0"/>
<path d="M462.822 544.017H457.406V549.431H462.822V544.017Z" fill="#F0F0F0"/>
<path d="M462.822 562.207H457.406V567.62H462.822V562.207Z" fill="#F0F0F0"/>
<path d="M462.822 571.292H457.406V576.724H462.822V571.292Z" fill="#F0F0F0"/>
<path d="M462.822 580.396H457.406V585.81H462.822V580.396Z" fill="#F0F0F0"/>
<path d="M462.822 589.481H457.406V594.895H462.822V589.481Z" fill="#F0F0F0"/>
<path d="M454.201 398.557H448.785V403.971H454.201V398.557Z" fill="#F0F0F0"/>
<path d="M454.201 407.662H448.785V413.075H454.201V407.662Z" fill="#F0F0F0"/>
<path d="M454.201 416.747H448.785V422.161H454.201V416.747Z" fill="#F0F0F0"/>
<path d="M454.201 425.832H448.785V431.246H454.201V425.832Z" fill="#F0F0F0"/>
<path d="M454.201 434.936H448.785V440.35H454.201V434.936Z" fill="#F0F0F0"/>
<path d="M454.201 444.022H448.785V449.436H454.201V444.022Z" fill="#F0F0F0"/>
<path d="M454.201 453.107H448.785V458.521H454.201V453.107Z" fill="#F0F0F0"/>
<path d="M454.201 462.211H448.785V467.644H454.201V462.211Z" fill="#F0F0F0"/>
<path d="M454.201 471.297H448.785V476.71H454.201V471.297Z" fill="#F0F0F0"/>
<path d="M454.201 480.382H448.785V485.796H454.201V480.382Z" fill="#F0F0F0"/>
<path d="M454.201 489.486H448.785V494.9H454.201V489.486Z" fill="#F0F0F0"/>
<path d="M454.201 498.571H448.785V503.985H454.201V498.571Z" fill="#F0F0F0"/>
<path d="M454.201 507.657H448.785V513.071H454.201V507.657Z" fill="#F0F0F0"/>
<path d="M454.201 516.742H448.785V522.156H454.201V516.742Z" fill="#F0F0F0"/>
<path d="M454.201 534.932H448.785V540.345H454.201V534.932Z" fill="#F0F0F0"/>
<path d="M454.201 553.121H448.785V558.535H454.201V553.121Z" fill="#F0F0F0"/>
<path d="M454.201 562.207H448.785V567.62H454.201V562.207Z" fill="#F0F0F0"/>
<path d="M454.201 571.292H448.785V576.724H454.201V571.292Z" fill="#F0F0F0"/>
<path d="M454.201 580.396H448.785V585.81H454.201V580.396Z" fill="#F0F0F0"/>
<path d="M454.201 589.481H448.785V594.895H454.201V589.481Z" fill="#F0F0F0"/>
<path d="M506.542 450.41H501.126V455.823H506.542V450.41Z" fill="#F0F0F0"/>
<path d="M506.542 459.495H501.126V464.909H506.542V459.495Z" fill="#F0F0F0"/>
<path d="M506.542 468.58H501.126V473.994H506.542V468.58Z" fill="#F0F0F0"/>
<path d="M506.542 477.666H501.126V483.079H506.542V477.666Z" fill="#F0F0F0"/>
<path d="M506.542 486.77H501.126V492.184H506.542V486.77Z" fill="#F0F0F0"/>
<path d="M506.542 495.855H501.126V501.269H506.542V495.855Z" fill="#F0F0F0"/>
<path d="M506.542 523.13H501.126V528.544H506.542V523.13Z" fill="#F0F0F0"/>
<path d="M506.542 532.215H501.126V537.629H506.542V532.215Z" fill="#F0F0F0"/>
<path d="M506.542 541.32H501.126V546.733H506.542V541.32Z" fill="#F0F0F0"/>
<path d="M506.542 550.405H501.126V555.837H506.542V550.405Z" fill="#F0F0F0"/>
<path d="M506.542 559.49H501.126V564.904H506.542V559.49Z" fill="#F0F0F0"/>
<path d="M506.542 568.594H501.126V574.008H506.542V568.594Z" fill="#F0F0F0"/>
<path d="M506.542 577.68H501.126V583.093H506.542V577.68Z" fill="#F0F0F0"/>
<path d="M497.922 450.41H492.506V455.823H497.922V450.41Z" fill="#F0F0F0"/>
<path d="M497.922 459.495H492.506V464.909H497.922V459.495Z" fill="#F0F0F0"/>
<path d="M497.922 468.58H492.506V473.994H497.922V468.58Z" fill="#F0F0F0"/>
<path d="M497.922 477.666H492.506V483.079H497.922V477.666Z" fill="#F0F0F0"/>
<path d="M497.922 486.77H492.506V492.184H497.922V486.77Z" fill="#F0F0F0"/>
<path d="M497.922 495.855H492.506V501.269H497.922V495.855Z" fill="#F0F0F0"/>
<path d="M497.922 523.13H492.506V528.544H497.922V523.13Z" fill="#F0F0F0"/>
<path d="M497.922 532.215H492.506V537.629H497.922V532.215Z" fill="#F0F0F0"/>
<path d="M497.922 541.32H492.506V546.733H497.922V541.32Z" fill="#F0F0F0"/>
<path d="M497.922 550.405H492.506V555.837H497.922V550.405Z" fill="#F0F0F0"/>
<path d="M497.922 559.49H492.506V564.904H497.922V559.49Z" fill="#F0F0F0"/>
<path d="M497.922 568.594H492.506V574.008H497.922V568.594Z" fill="#F0F0F0"/>
<path d="M497.922 586.765H492.506V592.179H497.922V586.765Z" fill="#F0F0F0"/>
<path d="M211.687 410.359H206.252V415.773H211.687V410.359Z" fill="#F0F0F0"/>
<path d="M211.687 419.463H206.252V424.877H211.687V419.463Z" fill="#F0F0F0"/>
<path d="M211.687 428.549H206.252V433.962H211.687V428.549Z" fill="#F0F0F0"/>
<path d="M211.687 437.634H206.252V443.048H211.687V437.634Z" fill="#F0F0F0"/>
<path d="M211.687 446.738H206.252V452.152H211.687V446.738Z" fill="#F0F0F0"/>
<path d="M211.687 455.823H206.252V461.237H211.687V455.823Z" fill="#F0F0F0"/>
<path d="M211.687 464.909H206.252V470.323H211.687V464.909Z" fill="#F0F0F0"/>
<path d="M211.687 474.013H206.252V479.427H211.687V474.013Z" fill="#F0F0F0"/>
<path d="M211.687 483.098H206.252V488.512H211.687V483.098Z" fill="#F0F0F0"/>
<path d="M211.687 492.184H206.252V497.597H211.687V492.184Z" fill="#F0F0F0"/>
<path d="M211.687 501.288H206.252V506.701H211.687V501.288Z" fill="#F0F0F0"/>
<path d="M211.687 519.458H206.252V524.872H211.687V519.458Z" fill="#F0F0F0"/>
<path d="M211.687 528.544H206.252V533.976H211.687V528.544Z" fill="#F0F0F0"/>
<path d="M211.687 537.648H206.252V543.08H211.687V537.648Z" fill="#F0F0F0"/>
<path d="M211.687 546.733H206.252V552.147H211.687V546.733Z" fill="#F0F0F0"/>
<path d="M211.687 555.819H206.252V561.232H211.687V555.819Z" fill="#F0F0F0"/>
<path d="M211.687 564.923H206.252V570.337H211.687V564.923Z" fill="#F0F0F0"/>
<path d="M211.687 574.008H206.252V579.422H211.687V574.008Z" fill="#F0F0F0"/>
<path d="M211.687 583.093H206.252V588.507H211.687V583.093Z" fill="#F0F0F0"/>
<path d="M203.067 410.359H197.651V415.773H203.067V410.359Z" fill="#F0F0F0"/>
<path d="M203.067 419.463H197.651V424.877H203.067V419.463Z" fill="#F0F0F0"/>
<path d="M203.067 428.549H197.651V433.962H203.067V428.549Z" fill="#F0F0F0"/>
<path d="M203.067 437.634H197.651V443.048H203.067V437.634Z" fill="#F0F0F0"/>
<path d="M203.067 446.738H197.651V452.152H203.067V446.738Z" fill="#F0F0F0"/>
<path d="M203.067 455.823H197.651V461.237H203.067V455.823Z" fill="#F0F0F0"/>
<path d="M203.067 464.909H197.651V470.323H203.067V464.909Z" fill="#F0F0F0"/>
<path d="M203.067 474.013H197.651V479.427H203.067V474.013Z" fill="#F0F0F0"/>
<path d="M203.067 483.098H197.651V488.512H203.067V483.098Z" fill="#F0F0F0"/>
<path d="M203.067 492.184H197.651V497.597H203.067V492.184Z" fill="#F0F0F0"/>
<path d="M203.067 501.288H197.651V506.701H203.067V501.288Z" fill="#F0F0F0"/>
<path d="M203.067 510.373H197.651V515.787H203.067V510.373Z" fill="#F0F0F0"/>
<path d="M203.067 519.458H197.651V524.872H203.067V519.458Z" fill="#F0F0F0"/>
<path d="M203.067 528.544H197.651V533.976H203.067V528.544Z" fill="#F0F0F0"/>
<path d="M203.067 537.648H197.651V543.08H203.067V537.648Z" fill="#F0F0F0"/>
<path d="M203.067 546.733H197.651V552.147H203.067V546.733Z" fill="#F0F0F0"/>
<path d="M203.067 555.819H197.651V561.232H203.067V555.819Z" fill="#F0F0F0"/>
<path d="M203.067 564.923H197.651V570.337H203.067V564.923Z" fill="#F0F0F0"/>
<path d="M203.067 574.008H197.651V579.422H203.067V574.008Z" fill="#F0F0F0"/>
<path d="M203.067 583.093H197.651V588.507H203.067V583.093Z" fill="#F0F0F0"/>
<path d="M254.114 445.783H248.699V451.196H254.114V445.783Z" fill="#F0F0F0"/>
<path d="M254.114 454.868H248.699V460.282H254.114V454.868Z" fill="#F0F0F0"/>
<path d="M254.114 463.953H248.699V469.367H254.114V463.953Z" fill="#F0F0F0"/>
<path d="M254.114 473.057H248.699V478.471H254.114V473.057Z" fill="#F0F0F0"/>
<path d="M254.114 482.143H248.699V487.557H254.114V482.143Z" fill="#F0F0F0"/>
<path d="M254.114 491.228H248.699V496.642H254.114V491.228Z" fill="#F0F0F0"/>
<path d="M254.114 500.314H248.699V505.727H254.114V500.314Z" fill="#F0F0F0"/>
<path d="M254.114 509.418H248.699V514.831H254.114V509.418Z" fill="#F0F0F0"/>
<path d="M254.114 518.503H248.699V523.917H254.114V518.503Z" fill="#F0F0F0"/>
<path d="M254.114 527.588H248.699V533.002H254.114V527.588Z" fill="#F0F0F0"/>
<path d="M245.494 445.783H240.078V451.196H245.494V445.783Z" fill="#F0F0F0"/>
<path d="M245.494 454.868H240.078V460.282H245.494V454.868Z" fill="#F0F0F0"/>
<path d="M245.494 463.953H240.078V469.367H245.494V463.953Z" fill="#F0F0F0"/>
<path d="M245.494 473.057H240.078V478.471H245.494V473.057Z" fill="#F0F0F0"/>
<path d="M245.494 482.143H240.078V487.557H245.494V482.143Z" fill="#F0F0F0"/>
<path d="M245.494 491.228H240.078V496.642H245.494V491.228Z" fill="#F0F0F0"/>
<path d="M245.494 500.314H240.078V505.727H245.494V500.314Z" fill="#F0F0F0"/>
<path d="M245.494 509.418H240.078V514.831H245.494V509.418Z" fill="#F0F0F0"/>
<path d="M245.494 518.503H240.078V523.917H245.494V518.503Z" fill="#F0F0F0"/>
<path d="M468.5 698C669.173 698 831.85 688.506 831.85 676.795C831.85 665.083 669.173 655.589 468.5 655.589C267.827 655.589 105.15 665.083 105.15 676.795C105.15 688.506 267.827 698 468.5 698Z" fill="#F5F5F5"/>
<path d="M460.011 337.489L463.159 341.385L163.825 579.722L176.587 595.495L178.33 597.668L477.664 359.331L480.812 363.228L486.434 337.433L460.011 337.489Z" fill="#2F5259"/>
<path d="M119.767 596.394C119.767 590.961 124.171 586.54 129.625 586.54C130.618 586.54 131.555 586.69 132.454 586.952C132.304 585.96 132.229 584.948 132.229 583.936C132.229 572.416 141.581 563.068 153.106 563.068C154.418 563.068 155.711 563.199 156.948 563.424C160.152 558.179 165.924 554.657 172.52 554.657C182.509 554.657 190.623 562.675 190.773 572.641C190.867 572.641 190.979 572.641 191.073 572.641C200.349 572.641 207.883 580.171 207.883 589.444C207.883 598.717 200.349 606.247 191.073 606.247H129.343C124.021 606.097 119.767 601.751 119.767 596.412V596.394Z" fill="#C5F1C3"/>
<path d="M747.258 488.475L754.735 497.728L615.59 610.069L645.818 647.478L649.978 652.611L789.123 540.27L796.581 549.524L809.887 488.343L747.258 488.475Z" fill="#CFF13E"/>
<path d="M672.035 606.022C666.413 597.068 656.481 591.092 645.143 591.092C633.806 591.092 623.536 597.274 617.97 606.472C616.509 606.06 614.972 605.835 613.379 605.835C603.99 605.835 596.363 613.44 596.363 622.844C596.363 622.844 596.363 622.844 596.363 622.863H587.387C582.72 622.863 578.897 626.685 578.897 631.349C578.897 636.013 582.72 639.835 587.387 639.835H618.345C623.986 648.677 633.862 654.578 645.124 654.578C654.007 654.578 662.047 650.925 667.8 645.043C668.343 645.08 668.868 645.118 669.412 645.118C680.262 645.118 689.07 636.332 689.07 625.467C689.07 615.501 681.649 607.296 672.016 606.022H672.035Z" fill="#C5F1C3"/>
<path d="M463.14 225.917L460.442 223.069C459.711 222.301 458.643 221.964 457.612 222.151L453.564 222.919C452.252 223.182 451.24 224.249 451.072 225.579L448.992 242.514L455.27 244.912C462.897 241.596 462.503 231.518 462.503 231.518L463.609 229.513C464.246 228.333 464.059 226.872 463.14 225.898V225.917Z" fill="#FFB573"/>
<path d="M387.487 276.664C387.487 276.664 393.484 277.02 397.007 276.945C400.549 276.888 404.091 276.832 407.558 276.626C411.024 276.401 414.454 276.158 417.602 275.727C419.158 275.502 420.676 275.221 421.875 274.903C422.437 274.734 422.981 274.566 423.224 274.472C423.636 274.285 423.187 274.603 423.412 274.472C423.992 273.966 425.136 272.617 426.129 271.362C427.16 270.051 428.19 268.646 429.221 267.222C431.282 264.356 433.325 261.378 435.349 258.38L447.586 240.228L457.144 245.324C455.738 248.827 454.22 252.199 452.683 255.608C451.109 258.98 449.498 262.352 447.83 265.705C446.143 269.058 444.382 272.393 442.489 275.727C441.533 277.394 440.54 279.061 439.434 280.766C438.291 282.508 437.26 284.138 435.274 286.292C434.206 287.472 432.257 288.915 431.001 289.533C429.615 290.282 428.434 290.751 427.253 291.2C424.948 292.024 422.868 292.549 420.807 293.017C416.721 293.935 412.823 294.46 408.944 294.834C401.186 295.602 393.727 295.902 385.95 295.715L387.431 276.664H387.487Z" fill="#407BFF"/>
<path d="M457.162 245.324C455.757 248.808 454.239 252.18 452.721 255.589C451.128 258.961 449.516 262.333 447.849 265.705C446.162 269.039 444.419 272.374 442.508 275.708C441.552 277.375 440.559 279.043 439.453 280.747C438.329 282.489 437.279 284.119 435.311 286.273C434.243 287.454 432.294 288.877 431.039 289.496C429.652 290.264 428.471 290.732 427.291 291.181C424.986 292.006 422.906 292.53 420.863 292.98C416.778 293.898 412.88 294.441 409.001 294.816C407.333 294.984 405.684 295.115 404.053 295.246C398.038 295.677 392.116 295.827 386.007 295.696L386.306 291.762L387.487 276.645C387.487 276.645 393.484 277.02 397.007 276.926C400.568 276.87 404.091 276.813 407.576 276.607C411.024 276.401 414.473 276.158 417.621 275.708C419.176 275.502 420.694 275.221 421.894 274.884C422.456 274.734 422.999 274.566 423.243 274.453C423.655 274.266 423.205 274.603 423.43 274.472C424.011 273.966 425.154 272.617 426.148 271.362C427.178 270.051 428.209 268.646 429.221 267.222C431.282 264.356 433.325 261.378 435.368 258.38L447.605 240.228L457.162 245.324Z" fill="#C5F1C3"/>
<path opacity="0.1" d="M404.053 295.246C398.038 295.677 392.116 295.827 386.007 295.696L386.306 291.762L387.768 288.315C387.768 288.315 397.588 288.184 404.053 295.246Z" fill="black"/>
<path d="M287.265 612.71C287.265 612.71 270.306 601.039 271.336 593.209C271.43 592.441 270.98 591.767 270.175 591.636L255.801 589.463C255.126 589.369 254.414 589.669 254.021 590.231L245.531 602.126L249.354 603.512L251.397 602.07L252.353 604.599C273.079 612.092 282.093 615.108 286.666 615.295C287.921 613.684 287.265 612.71 287.265 612.71Z" fill="black"/>
<path d="M382.802 392.338C382.802 392.338 381.94 394.586 380.422 398.483C378.792 402.697 376.393 408.842 373.507 416.147C371.577 421.018 369.44 426.413 367.135 432.089C356.547 458.39 342.867 490.928 333.816 507.357C316.481 538.791 271.318 598.492 271.318 598.492L253.271 591.898C253.271 591.898 285.766 530.417 302.164 499.265C307.167 489.767 312.921 475.792 318.617 460.544C321.335 453.294 324.033 445.745 326.638 438.271C327.819 434.899 328.981 431.527 330.105 428.211C333.085 419.444 335.877 410.996 338.332 403.465C338.632 402.529 338.932 401.592 339.231 400.693C340.225 397.602 341.162 394.68 342.005 391.982C345.528 380.892 347.721 373.587 347.796 373.306H347.814L363.912 382.073L382.802 392.338Z" fill="#263238"/>
<path opacity="0.3" d="M380.422 398.482C378.792 402.697 376.393 408.842 373.507 416.147C371.577 421.018 369.44 426.413 367.135 432.089C352.406 435.049 337.414 437.053 326.638 438.271C327.819 434.899 328.981 431.527 330.105 428.211C333.085 419.444 335.877 410.996 338.332 403.465C338.632 402.529 338.932 401.592 339.231 400.693C340.225 397.602 341.162 394.68 342.005 391.982C352.837 393.462 367.323 395.673 380.422 398.482Z" fill="black"/>
<path d="M325.139 286.629C325.139 286.629 325.139 286.648 325.139 286.667C327.744 295.378 329.262 305.512 330.105 315.497C330.761 323.271 331.005 330.914 331.042 337.77C331.061 344.682 330.855 350.808 330.63 355.491C330.33 361.504 329.974 365.213 329.974 365.213L386.906 368.135C403.997 306.243 387.468 276.645 387.468 276.645C387.468 276.645 380.366 275.933 372.195 276.289C371.146 276.326 370.078 276.401 368.972 276.495C362.001 277.076 350.907 279.267 343.504 280.953C341.986 281.291 340.45 281.684 338.95 282.096C331.511 284.119 325.102 286.629 325.102 286.629H325.139Z" fill="#407BFF"/>
<path d="M386.925 368.135L329.992 365.213C329.992 365.213 330.348 361.504 330.648 355.472C330.723 353.711 330.798 351.707 330.873 349.534C330.986 346.031 331.061 342.059 331.061 337.77C331.061 335.69 331.004 333.536 330.948 331.326C330.948 330.97 330.929 330.614 330.929 330.258C330.836 326.755 330.667 323.121 330.423 319.43C330.311 318.119 330.217 316.808 330.105 315.496C330.03 314.466 329.936 313.417 329.842 312.387C329.561 309.764 329.262 307.142 328.887 304.556C328.793 303.845 328.681 303.133 328.568 302.44C328.399 301.26 328.212 300.117 328.006 298.955C327.238 294.684 326.301 290.526 325.157 286.648C325.157 286.648 325.139 286.629 325.12 286.629C325.12 286.629 331.548 284.119 338.988 282.077C340.468 281.684 342.005 281.29 343.523 280.953C350.944 279.286 362.038 277.076 368.99 276.495C370.096 276.42 371.164 276.326 372.232 276.308C380.384 275.933 387.487 276.645 387.487 276.645C387.487 276.645 404.015 306.224 386.925 368.135Z" fill="#C5F1C3"/>
<path d="M422.137 516.255C422.137 516.255 405.871 503.629 407.351 495.874C407.501 495.106 407.089 494.413 406.283 494.244L392.06 491.247C391.404 491.116 390.654 491.378 390.223 491.903L381.059 503.292L384.788 504.884L386.925 503.573L387.749 506.158C408.007 514.831 416.853 518.353 421.388 518.821C422.737 517.285 422.137 516.274 422.137 516.274V516.255Z" fill="black"/>
<path d="M357.222 416.503C358.084 416.541 358.552 416.541 358.552 416.541L426.804 426.469L387.955 490.91L407.408 498.309C407.408 498.309 477.758 422.479 462.053 405.189C449.123 390.971 385.782 382.316 385.782 382.316L387.862 367.48L329.281 355.959C304.244 410.771 348.845 415.998 357.222 416.522V416.503Z" fill="#263238"/>
<path d="M328.587 361.766L327.332 361.523L328.475 357.57L329.58 357.795L328.587 361.766Z" fill="#263238"/>
<path d="M374.669 370.683L349.651 365.831L350.625 361.879L375.55 366.693L374.669 370.683Z" fill="#263238"/>
<path d="M377.48 367.068L388.049 369.128L387.337 373.137L376.637 371.058L377.48 367.068Z" fill="#263238"/>
<path d="M331.511 358.17L348.714 361.504L347.702 365.457L330.555 362.141L331.511 358.17Z" fill="#263238"/>
<path d="M328.587 361.766L327.332 361.523L328.475 357.57L329.58 357.795L328.587 361.766Z" fill="#C5F1C3"/>
<path d="M374.669 370.683L349.651 365.831L350.625 361.879L375.55 366.693L374.669 370.683Z" fill="#C5F1C3"/>
<path d="M377.48 367.068L388.049 369.128L387.337 373.137L376.637 371.058L377.48 367.068Z" fill="#C5F1C3"/>
<path d="M331.511 358.17L348.714 361.504L347.702 365.457L330.555 362.141L331.511 358.17Z" fill="#C5F1C3"/>
<path d="M367.735 365.962L367.173 368.379C367.079 368.772 366.704 369.016 366.311 368.941L360.052 367.836C359.621 367.761 359.358 367.349 359.452 366.918L360.089 364.408C360.183 364.033 360.558 363.79 360.951 363.864L367.154 365.063C367.566 365.138 367.829 365.55 367.735 365.962Z" stroke="white" stroke-width="0.59" stroke-miterlimit="10"/>
<path d="M362.544 366.169L360.633 365.831" stroke="white" stroke-width="0.59" stroke-linecap="round" stroke-linejoin="round"/>
<path d="M349.445 255.14L364.324 267.466C362.863 273.498 365.393 279.061 368.335 280.092C368.335 280.092 370.509 285.262 366.33 286.142C357.859 287.903 348.189 279.698 348.189 279.698C352.668 274.884 351.056 262.858 349.464 255.158L349.445 255.14Z" fill="#EBB376"/>
<path opacity="0.2" d="M355.498 260.16L364.306 267.447C363.95 268.871 363.687 270.313 363.593 271.718C360.295 271.306 355.741 267.766 355.348 264.337C355.16 262.614 355.217 260.966 355.498 260.16Z" fill="black"/>
<path d="M362.582 230.787C366.18 233.035 371.052 239.798 364.999 241.409C358.946 243.038 356.379 226.928 362.582 230.787Z" fill="#263238"/>
<path d="M343.991 253.885C350.288 262.183 353.549 267.353 360.857 268.852C371.858 271.081 379.841 259.898 376.149 249.857C372.814 240.828 363.087 228.783 352.368 231.068C341.799 233.316 337.714 245.605 343.991 253.903V253.885Z" fill="#FFB573"/>
<path d="M345.847 244.855L338.294 236.032C338.294 236.032 328.306 243.376 332.841 247.815C329.843 254.84 341.724 264.656 352.106 262.633C353.305 256.301 344.066 245.455 344.066 245.455C344.629 245.286 345.228 245.061 345.847 244.837V244.855Z" fill="#263238"/>
<path d="M345.453 263.326C347.627 265.087 350.419 265.686 352.706 265.386C356.135 264.956 356.547 261.528 354.486 258.961C352.631 256.657 348.601 254.109 345.697 255.833C342.83 257.537 342.979 261.303 345.472 263.326H345.453Z" fill="#FFB573"/>
<path d="M358.665 247.422C359.133 248.134 359.883 248.452 360.351 248.134C360.801 247.815 360.801 246.991 360.333 246.298C359.864 245.586 359.115 245.268 358.646 245.586C358.196 245.904 358.196 246.729 358.665 247.422Z" fill="#263238"/>
<path d="M366.592 242.046C367.06 242.757 367.81 243.076 368.278 242.757C368.728 242.439 368.728 241.615 368.26 240.922C367.791 240.21 367.042 239.891 366.573 240.21C366.123 240.528 366.123 241.352 366.592 242.046Z" fill="#263238"/>
<path d="M364.306 244.106C364.306 244.106 368.541 246.916 371.577 247.609C371.089 249.539 368.616 250.438 368.616 250.438L364.287 244.106H364.306Z" fill="#ED893E"/>
<path d="M362.113 255.215C361.813 255.383 361.495 255.571 361.176 255.814C361.064 255.889 361.045 256.058 361.12 256.17C361.195 256.282 361.363 256.301 361.457 256.226C364.474 254.034 367.379 255.121 367.416 255.14C367.548 255.196 367.679 255.14 367.735 254.99C367.791 254.859 367.735 254.709 367.585 254.671C367.473 254.634 364.961 253.697 362.094 255.233L362.113 255.215Z" fill="#263238"/>
<path d="M353.249 245.118C353.418 245.118 353.605 245.043 353.699 244.893C354.898 243.02 356.735 242.963 356.753 242.963C357.034 242.963 357.259 242.739 357.241 242.458C357.222 242.177 357.016 241.971 356.735 241.971C356.641 241.971 354.336 242.027 352.837 244.35C352.687 244.574 352.762 244.893 352.987 245.043C353.062 245.099 353.137 245.118 353.23 245.118H353.249Z" fill="#263238"/>
<path d="M366.686 235.639C366.686 235.639 366.723 235.452 366.686 235.358C366.611 235.096 366.33 234.927 366.067 235.002C363.425 235.733 362.731 237.924 362.694 238.018C362.619 238.28 362.75 238.561 363.013 238.636C363.275 238.711 363.556 238.58 363.631 238.318C363.65 238.224 364.212 236.557 366.33 235.957C366.498 235.92 366.611 235.789 366.667 235.639H366.686Z" fill="#263238"/>
<path d="M344.066 245.492C344.066 245.492 363.856 237.175 365.055 227.696C366.273 218.218 357.915 222.095 357.915 222.095C357.915 222.095 361.776 221.833 361.401 224.643C361.401 224.643 354.711 220.091 348.358 224.006C348.358 224.006 351.338 223.95 352.893 226.16C352.893 226.16 346.84 227.34 340.056 232.361C333.272 237.381 321.091 255.383 344.048 245.492H344.066Z" fill="#263238"/>
<path opacity="0.3" d="M385.782 382.316L353.53 378.607C353.53 378.607 366.292 376.509 386.494 377.258L385.782 382.316Z" fill="black"/>
<path opacity="0.1" d="M330.424 319.43C330.311 318.119 330.218 316.808 330.105 315.497C330.03 314.466 329.936 313.417 329.843 312.387C329.562 309.764 329.262 307.142 328.887 304.557C328.793 303.845 328.681 303.133 328.568 302.44C329.43 301.747 330.386 301.11 331.398 300.548C331.398 300.548 333.235 310.008 330.424 319.43Z" fill="black"/>
<path d="M276.696 365.457L271.093 378.607L283.218 381.604C283.218 381.604 288.427 372.969 283.349 366.375L276.696 365.457Z" fill="#EBB376"/>
<path d="M271.955 388.741L281.531 388.816L283.218 381.604L271.093 378.607L271.955 388.741Z" fill="#EBB376"/>
<path d="M331.248 295.734C332.073 303.976 329.262 307.329 329.262 307.329C329.262 307.329 321.279 312.349 317.812 314.916C314.869 317.126 311.984 319.393 309.247 321.641C307.898 322.784 306.586 323.926 305.387 325.069C304.206 326.193 303.101 327.373 302.389 328.272C302.07 328.628 301.751 329.228 301.433 329.752C301.096 330.295 300.74 331.12 300.365 331.794C299.634 333.311 298.903 334.904 298.21 336.59C296.823 339.943 295.511 343.427 294.274 346.968C291.669 354.011 289.271 361.279 286.778 368.416L275.703 365.794C276.827 358.02 278.345 350.452 280.107 342.771C281.025 338.95 282.056 335.128 283.236 331.251C283.817 329.303 284.492 327.336 285.242 325.312C285.691 324.245 286.047 323.289 286.61 322.147C287.209 320.985 287.753 319.861 288.559 318.662C290.058 316.414 291.519 314.728 293.019 313.099C294.499 311.488 295.98 310.008 297.479 308.565C300.458 305.699 303.513 303.095 306.624 300.585C312.827 295.546 319.048 290.938 325.72 286.498C325.72 286.498 330.517 288.297 331.267 295.771L331.248 295.734Z" fill="#407BFF"/>
<path d="M331.248 295.734C332.073 303.976 329.262 307.329 329.262 307.329C329.262 307.329 321.279 312.349 317.812 314.916C314.869 317.126 311.984 319.393 309.247 321.641C307.898 322.784 306.586 323.926 305.387 325.069C304.206 326.193 303.101 327.373 302.389 328.272C302.07 328.628 301.751 329.228 301.433 329.752C301.096 330.295 300.74 331.12 300.365 331.794C299.634 333.311 298.903 334.904 298.21 336.59C296.823 339.943 295.511 343.427 294.274 346.968C291.669 354.011 289.271 361.279 286.778 368.416L275.703 365.794C276.827 358.02 278.345 350.452 280.107 342.771C281.025 338.95 282.056 335.128 283.236 331.251C283.817 329.303 284.492 327.336 285.242 325.312C285.691 324.245 286.047 323.289 286.61 322.147C287.209 320.985 287.753 319.861 288.559 318.662C290.058 316.414 291.519 314.728 293.019 313.099C294.499 311.488 295.98 310.008 297.479 308.565C300.458 305.699 303.513 303.095 306.624 300.585C312.827 295.546 319.048 290.938 325.72 286.498C325.72 286.498 330.517 288.297 331.267 295.771L331.248 295.734Z" fill="#C5F1C3"/>
<path d="M356.416 284.681L360.576 291.219C360.576 291.219 346.053 308.828 318.243 314.635L316.387 320.292L322.291 321.847C322.291 321.847 352.312 314.073 364.306 291.556L370.49 284.662L363.2 282.208L356.397 284.681H356.416Z" fill="#2F5259"/>
<path d="M342.942 280.729L349.726 274.809L363.219 282.208L364.774 274.116L371.895 278.218L373.938 288.671L363.987 284.381L355.104 292.305L342.942 280.729Z" fill="#2F5259"/>
<path d="M342.942 280.729L349.726 274.809L363.219 282.208L364.774 274.116L371.895 278.218L373.938 288.671L363.987 284.381L355.104 292.305L342.942 280.729Z" fill="#2F5259"/>
<path d="M528.824 163.574C528.824 163.574 516.231 179.197 503.431 177.905C490.651 176.612 484.11 181.801 484.11 181.801L482.855 188.039L489.714 187.121C489.714 187.121 489.714 182.176 503.057 182.738C516.399 183.3 526.407 171.817 530.305 166.628L528.824 163.593V163.574Z" fill="#CFF13E"/>
<path d="M619.338 137.61L619.076 136.374C618.945 135.887 619.02 135.831 618.551 134.613C617.82 132.721 616.583 131.148 615.497 130.173C613.248 128.15 611.374 127.438 609.762 126.802C606.558 125.659 604.009 125.303 601.479 125.003C598.968 124.722 596.607 124.591 594.264 124.535C589.598 124.404 585.1 124.629 580.64 124.91C571.701 125.509 563.099 126.558 554.273 128.075L557.496 146.527C565.573 145.235 574.006 144.054 582.158 143.211C586.243 142.799 590.329 142.537 594.227 142.425C596.176 142.368 598.087 142.387 599.867 142.5C601.104 142.575 602.341 142.706 603.259 142.874C603.316 143.511 603.334 144.204 603.316 144.935C603.203 148.119 602.397 151.847 601.31 155.556C599.118 163.012 595.651 170.767 592.09 178.017L600.992 183.936C606.67 176.762 611.355 169.287 615.215 160.708C617.071 156.381 618.701 151.81 619.451 146.452C619.807 143.773 619.938 140.832 619.357 137.592L619.338 137.61Z" fill="#407BFF"/>
<path d="M619.432 146.452C618.832 150.873 617.595 154.77 616.152 158.423C615.853 159.191 615.534 159.959 615.215 160.708C611.336 169.288 606.651 176.743 600.973 183.918L592.09 177.998C595.651 170.749 599.099 163.012 601.31 155.538C602.06 152.971 602.678 150.386 603.016 147.989C603.184 146.921 603.278 145.89 603.316 144.916C603.334 144.186 603.316 143.493 603.259 142.856C602.341 142.687 601.104 142.556 599.867 142.481C598.087 142.369 596.176 142.369 594.227 142.406C594.077 142.406 593.946 142.425 593.796 142.425C590.01 142.556 586.094 142.818 582.139 143.212C574.231 144.036 566.098 145.16 558.246 146.415C557.984 146.452 557.74 146.49 557.496 146.527L554.273 128.057C563.118 126.54 571.701 125.491 580.64 124.891C585.1 124.61 589.598 124.385 594.264 124.516C596.607 124.573 598.968 124.704 601.479 124.985C604.009 125.303 606.558 125.659 609.762 126.783C611.374 127.42 613.229 128.132 615.497 130.155C616.583 131.129 617.82 132.703 618.551 134.595C619.001 135.812 618.945 135.868 619.076 136.356L619.338 137.592C619.919 140.833 619.788 143.755 619.432 146.452Z" fill="#C5F1C3"/>
<path opacity="0.1" d="M593.796 142.425C590.01 142.556 586.094 142.818 582.139 143.212C574.231 144.036 566.098 145.16 558.246 146.415C561.113 139.371 564.055 132.253 564.055 132.253C564.055 132.253 577.173 133.508 593.796 142.425Z" fill="black"/>
<path opacity="0.1" d="M616.152 158.423C615.853 159.191 615.534 159.959 615.215 160.708C611.336 169.288 606.651 176.743 600.973 183.918L592.09 177.998C595.651 170.749 599.099 163.012 601.31 155.538C602.06 152.971 602.678 150.386 603.016 147.989C607.345 150.892 611.767 154.339 616.152 158.423Z" fill="black"/>
<path d="M496.385 141.32C496.891 141.975 496.966 142.762 496.554 143.099C496.123 143.436 495.373 143.174 494.867 142.537C494.361 141.882 494.286 141.095 494.699 140.758C495.13 140.42 495.879 140.683 496.385 141.32Z" fill="#263238"/>
<path d="M497.041 142.706C497.041 142.706 498.521 147.614 498.315 150.686C500.302 150.855 501.876 148.831 501.876 148.831L497.041 142.706Z" fill="#DE5753"/>
<path d="M495.917 135.85C495.917 135.85 496.029 135.644 496.029 135.513C496.029 135.25 495.785 135.044 495.523 135.044C492.843 135.157 491.681 137.067 491.644 137.161C491.513 137.386 491.588 137.686 491.813 137.817C492.037 137.948 492.337 137.873 492.468 137.648C492.468 137.648 493.424 136.112 495.561 136C495.692 136 495.823 135.925 495.917 135.831V135.85Z" fill="#263238"/>
<path d="M515.05 131.298C521.234 135.756 533.097 142.818 539.824 140.139C539.824 140.139 545.877 145.179 540.068 157.804C533.678 171.704 530.117 161.27 530.117 161.27C531.785 152.859 526.069 150.461 520.185 149.356L515.069 131.279L515.05 131.298Z" fill="#E4897B"/>
<path d="M516.924 122.868C522.715 131.204 526.538 135.794 525.751 143.043C524.551 153.964 511.864 158.067 503.694 151.623C496.329 145.834 488.083 133.152 493.387 123.842C498.596 114.663 511.152 114.513 516.943 122.849L516.924 122.868Z" fill="#E4897B"/>
<path d="M526.238 136.636C525.376 141.357 509.447 147.82 502.232 137.629C502.232 137.629 493.162 137.554 487.727 132.103C482.274 126.633 483.455 120.714 488.327 117.492C492.637 114.644 503.769 93.7385 516.737 108.669C530.811 108.088 527.344 130.736 526.257 136.636H526.238Z" fill="#263238"/>
<path d="M499.346 115.244C499.346 115.244 490.988 114.832 486.172 118.672C481.356 122.493 482.705 134.239 484.56 136.468C486.415 138.697 488.383 138.678 488.383 138.678C488.383 138.678 485.535 137.198 485.535 135.044C485.535 135.044 486.772 137.948 492.45 138.678C492.45 138.678 490.838 137.386 491.082 135.737C491.082 135.737 494.155 139.727 501.276 135.737C508.397 131.747 499.327 115.244 499.327 115.244H499.346Z" fill="#263238"/>
<path d="M506.449 135.887C507.985 138.06 508.585 140.776 508.454 142.987C508.248 146.303 505.474 146.565 503.3 144.467C501.333 142.593 499.084 138.603 500.358 135.831C501.614 133.115 504.706 133.396 506.449 135.887Z" fill="#E4897B"/>
<path d="M523.09 163.574C523.09 163.574 521.534 144.71 533.846 134.126L548.52 135.475C548.52 135.475 540.068 156.1 523.09 163.574Z" fill="#407BFF"/>
<path d="M523.09 163.574C523.09 163.574 521.534 144.71 533.846 134.126L548.52 135.475C548.52 135.475 540.068 156.1 523.09 163.574Z" fill="#C5F1C3"/>
<path d="M565.386 205.985C565.386 205.985 543.198 184.218 518.667 168.969C518.667 168.969 535.008 130.623 555.697 127.214C555.697 127.214 609.162 143.362 624.679 187.102L565.386 205.985Z" fill="#407BFF"/>
<path d="M568.197 338.819L558.639 342.884L548.276 321.116L557.852 317.07L568.197 338.819Z" fill="#E4897B"/>
<path d="M624.679 187.102L619.038 246.991C615.928 249.295 610.999 251.075 605.021 252.461C593.327 255.177 577.735 256.414 564.261 257.144C549.138 257.968 536.714 258.118 535.589 258.999C532.966 261.04 566.267 329.808 566.267 329.808L550.375 331.794C550.375 331.794 508.604 274.509 503.188 254.615C501.201 247.272 499.196 238.074 512.689 229.476C524.57 221.908 568.796 216.232 568.796 216.232L565.386 206.023L624.679 187.14V187.102Z" fill="#263238"/>
<path opacity="0.2" d="M605.021 252.461C593.327 255.177 577.735 256.414 564.261 257.144C562.444 235.039 573.556 213.853 573.556 213.853L589.373 209.788L605.002 252.461H605.021Z" fill="black"/>
<path d="M707.604 329.996L709.309 340.261L685.715 345.207L684.01 334.941L707.604 329.996Z" fill="#E4897B"/>
<path d="M709.796 340.636C709.796 340.636 709.609 340.542 709.515 340.58C709.421 340.617 709.365 340.711 709.365 340.823C709.365 340.992 709.515 345.188 710.827 346.406C711.089 346.649 711.389 346.78 711.726 346.761C712.307 346.743 712.551 346.462 712.645 346.218C712.926 345.544 712.401 344.345 711.708 343.202C711.052 342.153 710.246 341.142 709.778 340.636H709.796ZM709.909 341.516C711.164 343.015 712.514 345.263 712.195 346.031C712.158 346.125 712.064 346.256 711.708 346.274C711.52 346.274 711.333 346.199 711.164 346.05C711.052 345.956 710.958 345.825 710.864 345.675C710.227 344.645 709.984 342.603 709.909 341.516Z" fill="#407BFF"/>
<path d="M709.721 340.58C709.721 340.58 709.553 340.561 709.478 340.617C709.384 340.692 707.154 342.397 706.91 344.083C706.835 344.607 706.966 345.057 707.266 345.469C707.679 346.012 708.072 345.993 708.335 345.881C709.44 345.431 710.04 342.134 709.871 340.767C709.871 340.729 709.871 340.692 709.834 340.673C709.815 340.636 709.759 340.598 709.721 340.58ZM707.398 344.158C707.547 343.052 708.784 341.853 709.403 341.31C709.403 342.809 708.803 345.169 708.147 345.45C708.091 345.469 707.922 345.544 707.66 345.188C707.622 345.15 707.604 345.113 707.585 345.057C707.416 344.794 707.36 344.495 707.416 344.158H707.398Z" fill="#407BFF"/>
<path d="M708.016 340.486L702.057 330.82C701.832 330.464 701.888 329.996 702.207 329.696L708.99 323.102C709.703 322.428 710.846 322.559 711.352 323.402C713.432 326.923 716.337 332.094 719.035 336.477C722.183 341.61 725.201 345.862 728.892 351.857C731.122 355.491 728.086 358.769 726.812 357.439C721.021 351.445 717.386 345.9 710.002 342.191C709.197 341.779 708.466 341.254 707.997 340.486H708.016Z" fill="#263238"/>
<path d="M624.679 187.102C624.679 187.102 643.719 236.051 611.599 255.046C611.599 255.046 611.186 311.619 619.32 318.232C629.214 326.305 701.607 330.408 701.607 330.408L700.97 348.372C700.97 348.372 623.461 354.723 599.999 346.293C572.526 336.44 566.398 206.828 566.398 206.828L624.698 187.084L624.679 187.102Z" fill="#263238"/>
<path opacity="0.2" d="M602.66 217.15L614.222 213.647C614.222 213.647 615.815 223.594 615.796 228.933L610.437 233.541L605.358 231.93C605.358 231.93 603.971 221.29 602.66 217.168V217.15Z" fill="black"/>
<path d="M569.209 206.041L570.708 210.799L566.417 212.111L564.917 207.409L569.209 206.041Z" fill="#263238"/>
<path d="M588.942 199.71L590.554 204.636L572.844 210.125L571.27 205.367L588.942 199.71Z" fill="#263238"/>
<path d="M610.999 192.629L612.611 197.799L592.802 203.943L591.228 198.979L610.999 192.629Z" fill="#263238"/>
<path d="M627.115 193.303L614.916 197.087H614.897L613.267 191.898L625.373 188.02L627.115 193.303Z" fill="#263238"/>
<path d="M569.209 206.041L570.708 210.799L566.417 212.111L564.917 207.409L569.209 206.041Z" fill="#C5F1C3"/>
<path d="M588.942 199.71L590.554 204.636L572.844 210.125L571.27 205.367L588.942 199.71Z" fill="#C5F1C3"/>
<path d="M610.999 192.629L612.611 197.799L592.802 203.943L591.228 198.979L610.999 192.629Z" fill="#C5F1C3"/>
<path d="M627.115 193.303L614.916 197.087H614.897L613.267 191.898L625.373 188.02L627.115 193.303Z" fill="#C5F1C3"/>
<path d="M555.697 339.849C555.791 339.83 555.866 339.737 555.885 339.643C555.885 339.549 555.847 339.437 555.753 339.399C555.604 339.306 551.912 337.339 550.188 337.845C549.832 337.957 549.569 338.144 549.419 338.444C549.138 338.969 549.269 339.306 549.419 339.512C549.869 340.093 551.162 340.261 552.493 340.224C553.73 340.186 555.023 339.999 555.678 339.849H555.697ZM554.891 339.512C552.961 339.83 550.338 339.887 549.832 339.212C549.775 339.119 549.7 338.969 549.869 338.669C549.963 338.5 550.113 338.388 550.338 338.313C550.488 338.276 550.637 338.257 550.806 338.238C552.024 338.201 553.898 339.025 554.873 339.493L554.891 339.512Z" fill="#407BFF"/>
<path d="M555.791 339.793C555.791 339.793 555.903 339.662 555.885 339.568C555.885 339.456 555.529 336.665 554.179 335.597C553.767 335.278 553.299 335.147 552.811 335.203C552.137 335.297 551.949 335.634 551.912 335.915C551.743 337.095 554.292 339.287 555.566 339.812C555.604 339.812 555.641 339.83 555.66 339.83C555.716 339.83 555.753 339.83 555.81 339.774L555.791 339.793ZM553.879 335.99C554.76 336.683 555.173 338.35 555.322 339.156C554.029 338.425 552.287 336.683 552.399 335.99C552.399 335.934 552.436 335.765 552.867 335.709C552.924 335.709 552.961 335.709 553.017 335.709C553.336 335.709 553.617 335.803 553.879 336.009V335.99Z" fill="#407BFF"/>
<path d="M556.709 338.369L568.066 338.107C568.497 338.107 568.871 338.388 568.965 338.8L571.233 347.998C571.476 348.953 570.764 349.871 569.79 349.89C565.686 349.909 559.764 349.815 554.629 349.946C548.613 350.096 543.422 350.545 536.357 350.714C532.085 350.808 530.81 346.537 532.572 346.106C540.668 344.139 547.302 343.783 554.217 339.287C554.966 338.8 555.81 338.444 556.709 338.425V338.369Z" fill="#263238"/>
<path d="M624.679 187.102L565.386 205.985C565.386 205.985 554.929 195.738 540.443 184.367C537.688 182.213 534.802 180.021 531.804 177.848C527.587 174.776 523.165 171.76 518.667 168.969C518.667 168.969 535.008 130.623 555.697 127.214C555.697 127.214 609.162 143.343 624.679 187.102Z" fill="#C5F1C3"/>
<path opacity="0.1" d="M540.443 184.367C537.688 182.213 534.802 180.021 531.804 177.848L532.966 174.345C532.966 174.345 537.95 178.542 540.443 184.367Z" fill="black"/>
<path d="M454.782 223.481L450.697 224.455C449.685 224.699 448.898 225.523 448.729 226.572L447.811 232.267C447.624 233.466 448.28 234.646 449.404 235.096L452.384 236.295C452.384 236.295 461.004 242.514 468.294 238.505L465.146 230.169L458.98 224.587C457.837 223.556 456.263 223.144 454.764 223.5L454.782 223.481Z" fill="#E4897B"/>
<path d="M529.199 170.487C534.446 173.634 534.896 180.115 534.896 180.115C534.896 180.115 530.773 191.28 528.393 196.843C526.763 200.609 525.095 204.393 523.127 208.158C521.103 211.961 519.154 215.67 515.837 219.791L515.2 220.559L514.432 221.383C513.963 221.908 513.289 222.526 512.614 223.107C512.333 223.369 511.808 223.744 511.377 224.043C510.946 224.343 510.365 224.736 510.178 224.793L508.585 225.617C506.523 226.647 504.593 227.471 502.644 228.258C498.803 229.832 494.98 231.199 491.157 232.529C483.492 235.096 475.865 237.437 468.031 239.404L464.321 229.382C471.348 225.786 478.507 222.376 485.497 218.873C489.002 217.131 492.487 215.389 495.823 213.628C497.472 212.748 499.121 211.83 500.527 210.968L501.539 210.331C501.82 210.181 501.595 210.256 501.576 210.256C501.539 210.256 501.445 210.368 501.501 210.275C501.557 210.181 501.614 210.144 501.801 209.9L502.026 209.619L502.288 209.226C503.806 207.015 505.53 203.643 507.011 200.346C508.491 196.975 509.99 193.472 511.358 189.894C514.076 182.775 516.699 175.338 519.135 168.145C519.135 168.145 523.633 167.152 529.18 170.487H529.199Z" fill="#407BFF"/>
<path d="M529.199 170.487C534.446 173.634 534.896 180.115 534.896 180.115C534.896 180.115 530.773 191.28 528.393 196.843C526.763 200.609 525.095 204.393 523.127 208.158C521.103 211.961 519.154 215.67 515.837 219.791L515.2 220.559L514.432 221.383C513.963 221.908 513.289 222.526 512.614 223.107C512.333 223.369 511.808 223.744 511.377 224.043C510.946 224.343 510.365 224.736 510.178 224.793L508.585 225.617C506.523 226.647 504.593 227.471 502.644 228.258C498.803 229.832 494.98 231.199 491.157 232.529C483.492 235.096 475.865 237.437 468.031 239.404L464.321 229.382C471.348 225.786 478.507 222.376 485.497 218.873C489.002 217.131 492.487 215.389 495.823 213.628C497.472 212.748 499.121 211.83 500.527 210.968L501.539 210.331C501.82 210.181 501.595 210.256 501.576 210.256C501.539 210.256 501.445 210.368 501.501 210.275C501.557 210.181 501.614 210.144 501.801 209.9L502.026 209.619L502.288 209.226C503.806 207.015 505.53 203.643 507.011 200.346C508.491 196.975 509.99 193.472 511.358 189.894C514.076 182.775 516.699 175.338 519.135 168.145C519.135 168.145 523.633 167.152 529.18 170.487H529.199Z" fill="#C5F1C3"/>
<path d="M186.482 667.559H502.963L670.461 532.328L677.807 541.413H719.054L761.069 348.035L719.803 348.11L719.822 348.035L521.853 348.429L545.484 377.67L186.482 667.559Z" fill="#2F5259"/>
<path d="M186.482 667.559H461.716L654.157 512.171L677.807 541.413L719.822 348.035L521.853 348.429L545.484 377.67L186.482 667.559Z" fill="#CFF13E"/>
<path d="M180.035 656.413H407.276C407.164 655.458 407.108 654.484 407.108 653.491C407.108 638.898 418.933 627.078 433.531 627.078C433.85 627.078 434.168 627.115 434.487 627.134C437.804 618.255 446.331 611.923 456.375 611.923C469.287 611.923 479.744 622.376 479.744 635.283C479.744 635.283 479.744 635.32 479.744 635.339C491.194 635.864 500.358 645.005 500.958 656.432H502.026C508.491 656.432 513.776 661.715 513.776 668.178C513.776 674.64 508.491 679.923 502.026 679.923H180.035C173.57 679.923 168.285 674.64 168.285 668.178C168.285 661.715 173.57 656.432 180.035 656.432V656.413Z" fill="#407BFF"/>
<path d="M180.035 656.413H407.276C407.164 655.458 407.108 654.484 407.108 653.491C407.108 638.898 418.933 627.078 433.531 627.078C433.85 627.078 434.168 627.115 434.487 627.134C437.804 618.255 446.331 611.923 456.375 611.923C469.287 611.923 479.744 622.376 479.744 635.283C479.744 635.283 479.744 635.32 479.744 635.339C491.194 635.864 500.358 645.005 500.958 656.432H502.026C508.491 656.432 513.776 661.715 513.776 668.178C513.776 674.64 508.491 679.923 502.026 679.923H180.035C173.57 679.923 168.285 674.64 168.285 668.178C168.285 661.715 173.57 656.432 180.035 656.432V656.413Z" fill="#CFF13E"/>
</g>
<defs>
<clipPath id="clip0_1_47">
<rect width="937" height="698" fill="white"/>
</clipPath>
</defs>
</svg>
