<svg viewBox="0 0 976 530" fill="none" xmlns="http://www.w3.org/2000/svg">
<g clip-path="url(#clip0_2_1023)">
<path d="M876.747 388.469H641.531C637.328 388.469 633.905 385.042 633.905 380.833V37.764C633.905 33.555 637.328 30.1278 641.531 30.1278H876.747C880.951 30.1278 884.373 33.555 884.373 37.764V380.833C884.373 385.042 880.951 388.469 876.747 388.469ZM641.544 30.4536C637.523 30.4536 634.244 33.7374 634.244 37.764V380.833C634.244 384.86 637.523 388.144 641.544 388.144H876.76C880.781 388.144 884.061 384.86 884.061 380.833V37.764C884.061 33.7374 880.781 30.4536 876.76 30.4536H641.544Z" fill="#E0E0E0"/>
<path d="M605.523 388.469H370.307C366.104 388.469 362.682 385.042 362.682 380.833V37.764C362.682 33.555 366.104 30.1278 370.307 30.1278H605.523C609.727 30.1278 613.149 33.555 613.149 37.764V380.833C613.149 385.042 609.727 388.469 605.523 388.469ZM370.307 30.4536C366.286 30.4536 363.007 33.7374 363.007 37.764V380.833C363.007 384.86 366.286 388.144 370.307 388.144H605.523C609.545 388.144 612.824 384.86 612.824 380.833V37.764C612.824 33.7374 609.545 30.4536 605.523 30.4536H370.307Z" fill="#E0E0E0"/>
<path d="M334.456 388.469H99.2527C95.0494 388.469 91.6269 385.042 91.6269 380.833V37.764C91.6269 33.555 95.0494 30.1278 99.2527 30.1278H334.469C338.672 30.1278 342.095 33.555 342.095 37.764V380.833C342.095 385.042 338.672 388.469 334.469 388.469H334.456ZM99.2527 30.4536C95.2316 30.4536 91.9522 33.7374 91.9522 37.764V380.833C91.9522 384.86 95.2316 388.144 99.2527 388.144H334.469C338.49 388.144 341.769 384.86 341.769 380.833V37.764C341.769 33.7374 338.49 30.4536 334.469 30.4536H99.2527Z" fill="#E0E0E0"/>
<path d="M976 468.05H0V468.207H976V468.05Z" fill="#E0E0E0"/>
<path d="M923.114 506.335H850.59V506.883H923.114V506.335Z" fill="#EBEBEB"/>
<path d="M663.251 512.278H644.212V512.825H663.251V512.278Z" fill="#EBEBEB"/>
<path d="M147.454 489.656H52.8862V490.203H147.454V489.656Z" fill="#EBEBEB"/>
<path d="M180.833 489.656H166.961V490.203H180.833V489.656Z" fill="#EBEBEB"/>
<path d="M431.002 498.921H225.898V499.468H431.002V498.921Z" fill="#EBEBEB"/>
<path d="M523.578 43.2762C519.154 44.4099 515.458 46.8988 512.764 50.1826V50.1566C507.923 54.0007 505.165 53.5968 503.98 53.0495L493.661 12.7834C492.88 9.73416 489.77 7.88375 486.725 8.67864L374.966 37.4122C371.921 38.194 370.073 41.3085 370.867 44.3577L381.252 84.8714C378.467 88.1031 372.129 85.9138 372.129 85.9138C368.342 84.5456 364.139 84.2719 359.949 85.3405C348.848 88.1943 342.16 99.5183 345.009 110.634C347.859 121.749 359.168 128.447 370.268 125.593C374.693 124.46 378.389 121.971 381.082 118.687V118.713C385.091 115.533 387.667 115.273 389.112 115.573L399.535 156.256C400.316 159.305 403.426 161.155 406.471 160.36L518.23 131.627C521.275 130.845 523.123 127.731 522.329 124.681L512.088 84.715C514.508 80.4669 521.718 82.9558 521.718 82.9558C525.504 84.3241 529.708 84.5977 533.898 83.5292C544.998 80.6754 551.687 69.3513 548.837 58.2358C545.987 47.1203 534.679 40.4223 523.578 43.2762Z" fill="#EBEBEB"/>
<path d="M381.095 35.8223C380.432 35.9917 383.399 53.3231 406.354 56.7111C429.31 60.0992 484.252 95.4525 477.095 142.208C477.095 142.208 492.984 138.116 492.281 138.299C491.579 138.481 491.644 77.3654 431.184 59.7213C370.724 42.0772 420.786 25.606 420.786 25.606L381.095 35.8093V35.8223Z" fill="#F0F0F0"/>
<path d="M639.84 316.251C643.106 320.2 647.4 322.767 652.007 323.94H651.994C658.188 327.028 659.099 330.025 659.125 331.485L623.287 361.234C620.567 363.489 620.189 367.529 622.441 370.252L704.997 469.979C707.249 472.702 711.283 473.08 714.002 470.826L750.062 440.893C754.669 442.184 755.476 449.65 755.476 449.65C755.905 454.133 757.636 458.551 760.72 462.291C768.919 472.194 783.585 473.575 793.475 465.353C803.365 457.143 804.745 442.457 796.533 432.554C793.267 428.605 788.972 426.038 784.366 424.865H784.379C779.251 422.311 777.742 419.822 777.364 418.206L813.568 388.157C816.287 385.902 816.665 381.863 814.413 379.139L743.907 293.968L731.857 279.399C729.606 276.676 725.571 276.298 722.852 278.552L687.286 308.081C681.821 307.651 680.897 299.154 680.897 299.154C680.467 294.672 678.736 290.254 675.652 286.514C667.454 276.611 652.788 275.229 642.898 283.452C633.008 291.662 631.628 306.348 639.84 316.251Z" fill="#EBEBEB"/>
<path d="M739.574 288.717C739.574 288.717 723.971 307.208 721.173 322.65C718.375 338.091 721.173 402.66 705.947 415.092C690.722 427.524 671.995 430.117 671.995 430.117L685.113 442.965C685.113 442.965 714.354 428.332 725.168 409.88C735.982 391.428 718.765 336.893 730.373 326.859C741.994 316.838 760.772 314.323 760.772 314.323L739.561 288.704L739.574 288.717Z" fill="#F5F5F5"/>
<path d="M190.945 454.798C193.938 454.211 196.501 452.687 198.427 450.602C202.019 448.074 203.867 448.673 204.544 449.103L209.892 476.273C210.295 478.345 212.3 479.687 214.369 479.283L290.067 464.323C292.136 463.919 293.477 461.913 293.073 459.841L287.725 432.71C287.1 432.28 285.252 431.576 281.556 434.195C279.631 436.267 277.067 437.792 274.074 438.378C266.552 439.864 259.252 434.964 257.768 427.432C256.285 419.9 261.178 412.59 268.699 411.104C271.536 410.544 274.334 410.896 276.807 411.951C276.807 411.951 281.765 413.971 283.43 410.896L278.134 384.026C277.731 381.954 275.726 380.612 273.657 381.016L240.981 387.466C237.884 385.811 239.927 380.82 239.927 380.82C240.981 378.344 241.332 375.543 240.773 372.702C239.289 365.17 231.989 360.27 224.467 361.756C216.945 363.241 212.052 370.552 213.536 378.084C214.121 381.081 215.644 383.661 217.713 385.577C220.355 389.329 219.6 391.18 219.184 391.779L197.959 395.975C195.89 396.379 194.549 398.386 194.953 400.458L200.262 427.38C198.57 430.364 193.677 428.371 193.677 428.371C191.205 427.315 188.407 426.963 185.57 427.524C178.048 429.009 173.155 436.32 174.639 443.851C176.122 451.383 183.423 456.283 190.945 454.798Z" fill="#F0F0F0"/>
<path d="M247.527 386.189C247.527 386.189 249.648 403.364 240.005 415.887C230.362 428.41 211.818 467.138 217.96 478.566L225.99 476.976C225.99 476.976 217.336 467.034 229.321 443.017C241.306 419.001 258.666 407.925 256.246 384.456L247.527 386.176V386.189Z" fill="#F5F5F5"/>
<path d="M841.234 127.522C839.438 126.193 837.33 125.541 835.248 125.528C832.086 124.825 831.5 123.522 831.396 122.948L843.485 106.594C844.409 105.343 844.149 103.597 842.9 102.672L797.34 68.9083C796.091 67.9831 794.347 68.2438 793.423 69.4947L781.36 85.8227C781.438 86.37 781.971 87.7252 785.212 88.4419C787.294 88.468 789.389 89.1065 791.198 90.4487C795.726 93.7977 796.676 100.196 793.332 104.731C789.987 109.266 783.598 110.217 779.069 106.868C777.364 105.604 776.167 103.91 775.517 102.046C775.517 102.046 774.163 98.3455 771.678 98.971L759.731 115.143C758.807 116.394 759.068 118.14 760.317 119.065L779.98 133.634C780.618 136.136 776.896 137.491 776.896 137.491C775.035 138.142 773.343 139.341 772.081 141.048C768.737 145.583 769.687 151.968 774.215 155.33C778.744 158.679 785.12 157.728 788.478 153.193C789.805 151.395 790.456 149.297 790.482 147.212C791.211 143.915 792.59 143.42 793.124 143.342L805.903 152.802C807.152 153.728 808.896 153.467 809.82 152.216L821.792 136.005C824.252 135.445 825.592 139.094 825.592 139.094C826.243 140.957 827.44 142.651 829.145 143.915C833.673 147.264 840.05 146.313 843.407 141.778C846.752 137.243 845.802 130.858 841.273 127.496L841.234 127.522Z" fill="#F0F0F0"/>
<path d="M770.728 126.766C770.728 126.766 804.523 130.741 808.805 117.332C813.086 103.923 795.765 99.5053 811.928 79.7111L816.496 83.0991C816.496 83.0991 807.191 81.379 808.805 94.801C810.418 108.21 819.254 114.882 811.485 123.886C803.716 132.891 779.967 133.621 779.967 133.621L770.728 126.779V126.766Z" fill="#F5F5F5"/>
<path d="M205.741 201.956C203.008 198.646 199.403 196.483 195.538 195.492H195.551C189.995 192.73 189.5 190.045 189.578 188.925L219.561 164.074C221.838 162.185 222.164 158.797 220.277 156.503L151.033 72.7265C149.146 70.446 145.762 70.1203 143.472 72.0098L113.528 96.821C113.424 97.8765 113.789 100.639 119.501 103.467H119.488C123.353 104.47 126.958 106.62 129.691 109.943C136.575 118.27 135.404 130.597 127.101 137.478C118.799 144.358 106.475 143.199 99.6041 134.885C97.0144 131.744 95.5569 128.043 95.2056 124.264C95.2056 124.264 94.3857 116.758 89.4667 116.758L59.8093 141.335C57.5319 143.225 57.2066 146.613 59.0935 148.906L88.9852 185.067C89.0242 190.019 81.4765 190.827 81.4765 190.827C77.7156 191.179 74.0068 192.638 70.8706 195.232C62.5551 202.125 61.3969 214.452 68.281 222.766C75.165 231.093 87.4756 232.253 95.7781 225.359C99.0835 222.623 101.257 219.013 102.246 215.156C105.109 209.37 107.894 209.058 108.922 209.188L128.338 232.67C130.224 234.95 133.608 235.276 135.898 233.387L165.608 208.758C170.436 208.849 171.242 216.264 171.242 216.264C171.594 220.03 173.051 223.744 175.641 226.884C182.525 235.211 194.836 236.371 203.138 229.477C211.454 222.584 212.612 210.256 205.728 201.943L205.741 201.956Z" fill="#E6E6E6"/>
<path d="M128.624 84.3111C128.624 84.3111 163.89 103.988 163.864 122.323C163.851 140.657 111.264 195.596 135.898 233.4L147.116 224.317C147.116 224.317 130.433 221.75 137.161 196.756C143.888 171.763 173.064 127.887 171.06 111.207C169.056 94.5405 143.459 71.9967 143.459 71.9967L128.611 84.298L128.624 84.3111Z" fill="#EBEBEB"/>
<path d="M250.78 66.0024L253.031 75.7888L262.804 78.0432L253.031 80.3106L250.78 90.0839L248.529 80.3106L238.756 78.0432L248.529 75.7888L250.78 66.0024Z" fill="#E6E6E6"/>
<path d="M880.092 53.9617L882.356 63.748L892.116 66.0024L882.356 68.2568L880.092 78.0431L877.84 68.2568L868.067 66.0024L877.84 63.748L880.092 53.9617Z" fill="#E6E6E6"/>
<path d="M156.642 472.416L158.893 482.202L168.666 484.456L158.893 486.711L156.642 496.497L154.39 486.711L144.617 484.456L154.39 482.202L156.642 472.416Z" fill="#E6E6E6"/>
<path d="M56.2176 236.827L58.4689 246.613L68.2419 248.881L58.4689 251.135L56.2176 260.921L53.9663 251.135L44.1933 248.881L53.9663 246.613L56.2176 236.827Z" fill="#E6E6E6"/>
<path d="M612.381 474.67L614.633 484.456L624.406 486.711L614.633 488.978L612.381 498.752L610.117 488.978L600.344 486.711L610.117 484.456L612.381 474.67Z" fill="#E6E6E6"/>
<path d="M602.4 39.5754L605.094 51.2643L616.767 53.9617L605.094 56.6592L602.4 68.3481L599.706 56.6592L588.033 53.9617L599.706 51.2643L602.4 39.5754Z" fill="#E6E6E6"/>
<path d="M908.604 176.949L909.944 182.761L915.748 184.103L909.944 185.445L908.604 191.257L907.263 185.445L901.473 184.103L907.263 182.761L908.604 176.949Z" fill="#E6E6E6"/>
<path d="M539.845 392.835L541.186 398.634L546.989 399.976L541.186 401.318L539.845 407.13L538.505 401.318L532.701 399.976L538.505 398.634L539.845 392.835Z" fill="#E6E6E6"/>
<path d="M365.974 434.482L367.314 440.281L373.118 441.623L367.314 442.965L365.974 448.777L364.647 442.965L358.843 441.623L364.647 440.281L365.974 434.482Z" fill="#E6E6E6"/>
<path d="M54.8122 399.976L56.1525 405.788L61.9565 407.13L56.1525 408.472L54.8122 414.284L53.4718 408.472L47.6808 407.13L53.4718 405.788L54.8122 399.976Z" fill="#E6E6E6"/>
<path d="M819.424 479.57L820.764 485.382L826.568 486.711L820.764 488.053L819.424 493.865L818.083 488.053L812.279 486.711L818.083 485.382L819.424 479.57Z" fill="#E6E6E6"/>
<path d="M345.842 145.557L347.183 151.369L352.987 152.711L347.183 154.053L345.842 159.865L344.515 154.053L338.711 152.711L344.515 151.369L345.842 145.557Z" fill="#E6E6E6"/>
<path d="M344.515 0L345.842 5.81186L351.646 7.15406L345.842 8.48323L344.515 14.2951L343.175 8.48323L337.371 7.15406L343.175 5.81186L344.515 0Z" fill="#E6E6E6"/>
<path d="M93.4618 62.2886L94.8021 68.1004L100.606 69.4426L94.8021 70.7848L93.4618 76.5837L92.1214 70.7848L86.3174 69.4426L92.1214 68.1004L93.4618 62.2886Z" fill="#E6E6E6"/>
<path d="M709.018 154.822L710.359 160.634L716.163 161.963L710.359 163.306L709.018 169.117L707.678 163.306L701.887 161.963L707.678 160.634L709.018 154.822Z" fill="#E6E6E6"/>
<path d="M519.714 456.661C518.035 455.41 516.083 454.824 514.131 454.798C511.19 454.133 510.63 452.921 510.539 452.387L521.809 437.128C522.668 435.968 522.42 434.326 521.262 433.466L478.761 401.97C477.602 401.11 475.963 401.357 475.104 402.517L463.847 417.75C463.925 418.259 464.42 419.523 467.439 420.2C469.378 420.226 471.33 420.826 473.022 422.064C477.238 425.191 478.136 431.159 475.013 435.381C471.889 439.603 465.929 440.503 461.713 437.375C460.125 436.189 459.006 434.613 458.395 432.866C458.395 432.866 457.132 429.413 454.803 430L443.651 445.09C442.792 446.249 443.039 447.891 444.197 448.751L462.546 462.343C463.145 464.675 459.67 465.952 459.67 465.952C457.926 466.565 456.352 467.685 455.167 469.275C452.044 473.497 452.929 479.466 457.158 482.593C461.375 485.72 467.335 484.834 470.458 480.599C471.694 478.918 472.306 476.964 472.319 475.022C472.996 471.947 474.284 471.477 474.778 471.412L486.699 480.247C487.857 481.107 489.497 480.86 490.355 479.7L501.521 464.584C503.811 464.063 505.06 467.464 505.06 467.464C505.672 469.197 506.791 470.787 508.379 471.96C512.595 475.087 518.555 474.201 521.679 469.966C524.802 465.744 523.917 459.776 519.687 456.648L519.714 456.661Z" fill="#E6E6E6"/>
<path d="M448.127 451.644C448.127 451.644 448.83 443.943 466.541 447.214C484.252 450.484 500.922 446.875 502.132 439.46C503.33 432.058 494.572 413.685 494.572 413.685L509.303 424.605C509.303 424.605 515.718 438.261 506.089 444.972C496.459 451.683 471.018 448.165 463.105 451.644C455.193 455.123 457.757 458.772 457.757 458.772L447.294 452.022" fill="#EBEBEB"/>
<path d="M954.971 522.012C954.971 526.43 745.183 530 486.386 530C227.59 530 17.8022 526.416 17.8022 522.012C17.8022 517.607 227.59 514.024 486.386 514.024C745.183 514.024 954.971 517.607 954.971 522.012Z" fill="#F5F5F5"/>
<path d="M862.498 195.349H701.106C696.708 195.349 693.129 198.919 693.129 203.337V261.169C694.235 262.289 697.736 264.492 706.39 260.621V260.647C711.179 257.155 717.061 255.07 723.45 255.07C739.483 255.07 752.47 268.088 752.47 284.129C752.47 300.171 739.47 313.189 723.45 313.189C717.399 313.189 711.79 311.338 707.145 308.172C707.145 308.172 697.788 302.008 693.129 307.651V364.935C693.129 369.34 696.695 372.923 701.106 372.923H862.498C866.896 372.923 870.475 369.353 870.475 364.935V203.324C870.475 198.919 866.909 195.336 862.498 195.336V195.349Z" fill="#407BFF"/>
<path d="M862.498 195.349H701.106C696.708 195.349 693.129 198.919 693.129 203.337V261.169C694.235 262.289 697.736 264.492 706.39 260.621V260.647C711.179 257.155 717.061 255.07 723.45 255.07C739.483 255.07 752.47 268.088 752.47 284.129C752.47 300.171 739.47 313.189 723.45 313.189C717.399 313.189 711.79 311.338 707.145 308.172C707.145 308.172 697.788 302.008 693.129 307.651V364.935C693.129 369.34 696.695 372.923 701.106 372.923H862.498C866.896 372.923 870.475 369.353 870.475 364.935V203.324C870.475 198.919 866.909 195.336 862.498 195.336V195.349Z" fill="#C5F1C3"/>
<path opacity="0.4" d="M808.753 372.936L806.371 344.776C805.395 334.977 803.677 328.605 810.288 329.087C816.899 329.569 822.534 336.932 824.98 346.249L827.947 372.936" fill="black"/>
<path opacity="0.4" d="M837.577 372.936C837.252 364.909 838.696 321.972 838.696 321.972C838.696 311.43 833.062 281.041 834.285 266.329C835.508 251.617 839.425 244.02 845.06 244.515C850.695 245.01 853.141 256.764 853.141 256.764C853.141 256.764 856.564 255.787 859.505 261.912C862.446 268.036 868.809 283.23 868.809 283.23C868.809 283.23 878.934 328.891 877.762 372.923H837.59L837.577 372.936Z" fill="black"/>
<path d="M864.489 522.012C864.489 522.012 860.233 457.274 852.022 452.4C850.591 451.553 825.475 429.569 818.383 406.035C811.29 382.501 814.218 354.563 813.242 344.75C812.266 334.938 810.549 328.579 817.159 329.061C823.77 329.543 829.405 336.905 831.851 346.223C834.298 355.54 832.58 376.129 835.768 380.051C838.957 383.974 841.156 381.524 841.156 380.781C841.156 380.038 845.567 332.488 845.567 321.959C845.567 311.43 839.933 281.028 841.156 266.316C842.379 251.604 846.296 244.007 851.931 244.502C857.566 244.997 860.012 256.751 860.012 256.751C860.012 256.751 863.435 255.774 866.376 261.899C869.317 268.023 875.68 283.217 875.68 283.217C875.68 283.217 876.409 271.45 881.549 270.968C886.689 270.473 889.383 276.363 891.335 283.465C893.287 290.567 896.476 301.604 898.193 310.179C899.911 318.753 901.616 332.736 901.616 332.736C901.616 332.736 903.334 309.449 905.038 305.527C906.756 301.604 912.872 298.177 914.59 301.604C916.308 305.031 912.872 344.007 912.872 351.357C912.872 358.706 905.038 415.574 907.979 428.318C910.92 441.063 939.055 521.986 939.055 521.986H864.502L864.489 522.012Z" fill="#B97964"/>
<path d="M869.837 346.379C870.722 333.83 871.594 321.177 869.941 308.654C868.484 297.669 865.4 286.957 863.396 276.076C862.159 269.392 861.326 262.654 861.04 255.865C860.988 254.614 859.036 254.601 859.088 255.865C859.57 267.189 861.704 278.253 864.15 289.303C865.361 294.776 866.61 300.262 867.547 305.787C868.614 312.055 868.952 318.427 868.926 324.774C868.9 331.98 868.393 339.186 867.885 346.379C867.794 347.63 869.746 347.63 869.837 346.379Z" fill="#A24E3F"/>
<path d="M875.134 282.774C878.816 290.645 882.473 298.776 884.829 307.155C885.948 311.143 886 315.209 886.091 319.326C886.208 324.93 886.182 330.546 886.143 336.15C886.117 339.564 886.078 342.965 886.013 346.379C885.987 347.643 887.939 347.643 887.965 346.379C888.134 337.831 888.212 329.269 888.082 320.708C888.017 316.525 888.108 312.185 887.119 308.107C885.818 302.751 883.657 297.565 881.549 292.482C880.053 288.886 878.491 285.315 876.838 281.784C876.305 280.65 874.626 281.641 875.147 282.774H875.134Z" fill="#A24E3F"/>
<path d="M900.783 329.426C900.067 337.544 900.692 345.754 900.705 353.885C900.705 355.149 902.657 355.149 902.657 353.885C902.657 345.754 902.019 337.544 902.735 329.426C902.852 328.175 900.887 328.175 900.783 329.426Z" fill="#A24E3F"/>
<path opacity="0.2" d="M725.597 195.258C725.597 195.258 726.183 233.738 760.447 247.343C794.698 260.947 789.389 284.599 780.527 304.119C771.665 323.64 716.15 372.884 718.518 372.884H752.795C752.795 372.884 749.23 357.052 775.204 325.269C801.192 293.486 809.638 267.463 795.375 252.673C781.112 237.882 739.769 231.966 753.94 195.297H722.045" fill="white"/>
<path opacity="0.4" d="M693.129 320.525C693.129 320.525 718.87 332.566 727.601 312.915C727.601 312.915 718.583 315.899 711.777 309.084C704.971 302.269 692.739 302.999 693.142 302.999C693.546 302.999 693.142 320.538 693.142 320.538L693.129 320.525Z" fill="black"/>
<path d="M706.038 254.94C699.662 254.94 693.78 257.025 688.978 260.517V260.491C680.571 264.244 677.019 262.276 675.808 261.13V203.207C675.808 198.802 672.243 195.219 667.831 195.219H506.44C502.041 195.219 498.463 198.789 498.463 203.207V261.038C499.569 262.159 503.069 264.361 511.723 260.491V260.517C516.512 257.025 522.394 254.94 528.784 254.94C544.816 254.94 557.804 267.958 557.804 283.999C557.804 300.04 544.803 313.059 528.784 313.059C522.733 313.059 517.124 311.208 512.478 308.042C512.478 308.042 503.122 301.878 498.463 307.52V364.805C498.463 369.209 502.028 372.793 506.44 372.793H576.113C581.813 377.445 575.58 386.867 575.58 386.867C572.417 391.519 570.57 397.135 570.57 403.195C570.57 419.249 583.57 432.254 599.589 432.254C615.609 432.254 628.609 419.236 628.609 403.195C628.609 396.809 626.553 390.906 623.065 386.111C619.161 377.341 621.452 373.862 622.571 372.793H667.818C672.217 372.793 675.795 369.223 675.795 364.805V307.403C680.48 301.956 689.72 308.055 689.72 308.055C694.365 311.221 699.974 313.072 706.025 313.072C722.058 313.072 735.045 300.054 735.045 284.012C735.045 267.971 722.045 254.953 706.025 254.953L706.038 254.94Z" fill="#CFF13E"/>
<path opacity="0.2" d="M529.591 372.454C529.591 372.454 535.303 342.17 584.143 313.893C632.969 285.615 579.809 195.232 579.809 195.232H594.54C594.54 195.232 629.455 231.432 627.789 283.856C625.967 341.206 572.496 312.524 556.242 341.206C539.988 369.887 552.455 372.48 552.455 372.48L529.604 372.441L529.591 372.454Z" fill="white"/>
<path opacity="0.2" d="M634.881 372.493C634.881 372.493 634.882 356.074 653.881 340.046C672.88 324.018 675.808 322.649 675.808 322.649V335.537C675.808 335.537 655.377 343.225 651.877 353.65C648.376 364.075 655.338 372.48 655.338 372.48H634.868L634.881 372.493Z" fill="white"/>
<path opacity="0.4" d="M518.217 234.195C518.217 234.195 525.296 240.137 531.126 233.608C531.126 233.608 546.482 244.893 555.773 240.215C555.773 240.215 574.239 245.649 581.527 238.677L584.26 233.608C584.26 233.608 595.998 235.198 598.626 224.33C600.097 218.258 592.9 207.833 588.554 203.532C588.554 203.532 591.482 196.769 591.079 196.769C590.168 196.769 515.927 197.655 515.927 197.655L518.204 234.208L518.217 234.195Z" fill="black"/>
<path d="M626.371 135.171C624.458 136.136 552.963 125.945 539.533 132.669C526.103 139.393 503.278 176.284 502.809 187.804C502.328 199.323 513.649 231.575 514.131 233.491C514.612 235.406 524.06 235.654 526.598 222.923C527.079 220.525 527.561 213.801 527.561 213.801C527.561 213.801 544.348 245.975 560.159 231.562C560.159 231.562 567.811 240.423 573.81 235.276C579.809 230.129 578.378 227.718 578.378 227.718C578.378 227.718 589.881 231.08 590.363 221.476C590.844 211.872 582.685 204.666 582.685 204.666L591.313 191.7C591.313 191.7 636.625 199.701 648.845 191.218C657.837 184.976 657.954 181.614 657.954 181.614L752.886 1.66797H673.323L626.371 135.171Z" fill="#FD8173"/>
<path d="M578.13 226.506C574.591 224.252 571.012 221.958 568.045 218.974C565.078 215.99 560.536 208.966 560.055 204.796C559.196 197.356 568.071 185.993 571.507 180.546" stroke="#FD504E" stroke-linecap="round" stroke-linejoin="round"/>
<path d="M562.306 233.608C557.452 229.673 554.862 226.754 550.412 221.463C547.653 218.192 544.556 213.892 542.07 209.761C539.038 204.718 537.242 198.919 539.559 193.511C541.875 188.104 553.873 166.928 553.873 166.928" stroke="#FD504E" stroke-linecap="round" stroke-linejoin="round"/>
<path d="M534.562 224.33C529.265 218.049 523.865 206.777 521.093 198.137C519.154 192.065 531.035 169.625 536.41 160.634" stroke="#FD504E" stroke-linecap="round" stroke-linejoin="round"/>
<path d="M591.092 192.625C594.267 190.475 596.883 187.517 598.639 184.103" stroke="#FD504E" stroke-linecap="round" stroke-linejoin="round"/>
<path d="M294.726 260.53V203.246C294.726 198.841 291.16 195.258 286.749 195.258H224.727C220.836 190.384 226.25 182.174 226.25 182.174C229.412 177.522 231.26 171.906 231.26 165.847C231.26 149.792 218.26 136.787 202.24 136.787C186.221 136.787 173.22 149.805 173.22 165.847C173.22 172.232 175.277 178.135 178.764 182.93C181.861 189.876 181.054 193.512 180.039 195.258H125.37C120.972 195.258 117.393 198.828 117.393 203.246V364.857C117.393 369.262 120.959 372.845 125.37 372.845H286.762C291.16 372.845 294.739 369.275 294.739 364.857V307.025C293.633 305.905 290.132 303.702 281.478 307.573V307.546C276.689 311.039 270.807 313.137 264.418 313.137C248.385 313.137 235.398 300.119 235.398 284.077C235.398 268.036 248.398 255.018 264.418 255.018C270.469 255.018 276.078 256.869 280.724 260.035C280.724 260.035 290.08 266.199 294.739 260.556L294.726 260.53Z" fill="#CFF13E"/>
<path opacity="0.2" d="M240.07 195.258C240.07 195.258 248.854 210.96 228.839 224.682C208.825 238.391 185.648 270.043 181.08 291.492C176.513 312.941 117.523 317.867 117.523 317.867V354.015C117.523 354.015 176.513 346.496 187.756 319.353C198.987 292.209 200.548 265.482 219.262 246.848C237.975 228.213 276.247 195.271 276.247 195.271H240.083" fill="white"/>
<path opacity="0.4" d="M119.189 251.083C119.189 251.083 125.097 250.77 127.296 260.53C129.496 270.291 117.38 303.337 117.38 303.337V273.314L119.189 251.083Z" fill="black"/>
<path opacity="0.4" d="M151.67 315.521C151.67 315.521 162.68 316.238 166.219 327.627L167.417 332.879C167.417 332.879 178.569 340.593 175.29 355.032C174.535 358.342 170.54 364.284 170.54 364.284L174.652 372.845L153.805 372.519L145.984 330.898L151.67 315.535V315.521Z" fill="black"/>
<path d="M90.2605 406.439C90.2605 406.439 79.6286 330.807 78.3923 312.107C77.143 293.408 111.173 249.949 115.324 248.698C119.475 247.447 125.279 252.021 123.627 261.99C121.961 271.959 107.022 298.803 107.022 298.803L109.507 316.251C109.507 316.251 126.516 307.52 141.455 311.26C156.394 315 160.129 323.314 158.88 332.866C158.88 332.866 167.182 340.346 167.599 347.826C168.015 355.305 163.864 361.117 163.864 361.117C163.864 361.117 167.182 372.754 164.28 377.328C161.378 381.902 143.537 388.965 143.537 388.965C143.537 388.965 150.031 421.269 133.751 432.254C133.751 432.254 109.078 522.09 109.624 521.999H30.6204C30.6204 521.999 77.8848 429.491 81.2032 422.845C84.5216 416.2 90.2605 406.413 90.2605 406.413V406.439Z" fill="#FDBBB5"/>
<path d="M144.084 393.03C142.873 385.863 141.65 378.696 140.44 371.516C140.323 370.799 140.193 370.07 139.802 369.47C139.412 368.871 138.67 368.415 137.98 368.584" stroke="#D7504D" stroke-linecap="round" stroke-linejoin="round"/>
<path d="M115.441 331.589C130.758 322.141 149.341 322.232 158.893 332.879" stroke="#D7504D" stroke-linecap="round" stroke-linejoin="round"/>
<path d="M163.877 361.13C161.404 355.032 159.244 349.728 152.998 347.695C146.751 345.662 135.963 347.617 130.381 351.096" stroke="#D7504D" stroke-linecap="round" stroke-linejoin="round"/>
<path d="M141.702 374.696C144.305 372.272 147.701 370.721 151.241 370.343" stroke="#D7504D" stroke-linecap="round" stroke-linejoin="round"/>
<path d="M105.616 319.34C112.526 313.267 127.348 310.922 132.775 310.348" stroke="#D7504D" stroke-linecap="round" stroke-linejoin="round"/>
<path opacity="0.2" d="M257.43 312.29C257.43 312.29 210.191 348.581 212.586 372.832H238.534C238.534 372.832 217.375 371.659 228.15 354.002C238.925 336.332 267.268 312.225 267.294 312.967C267.294 313.163 259.017 312.629 257.43 312.29Z" fill="white"/>
<path d="M383.906 379.478C383.906 379.478 392.625 367.75 406.836 361.834C421.046 355.905 424.69 356.908 426.759 360.844C428.841 364.779 419.146 377.093 414.982 380.508C410.818 383.922 384.999 401.331 384.999 401.331L383.906 379.491V379.478Z" fill="#E97F3F"/>
<path d="M519.609 254.979C513.233 254.979 507.351 257.064 502.549 260.569V260.543C494.676 264.062 491.071 262.55 489.653 261.403V203.246C489.653 198.841 486.087 195.258 481.676 195.258H320.284C315.886 195.258 312.307 198.828 312.307 203.246V261.755C307.401 265.156 299.593 259.996 299.593 259.996C294.947 256.83 289.338 254.979 283.287 254.979C267.255 254.979 254.268 267.997 254.268 284.038C254.268 300.08 267.268 313.098 283.287 313.098C289.664 313.098 295.546 311.013 300.348 307.507V307.533C306.867 304.614 310.459 305.162 312.307 306.087V364.831C312.307 369.236 315.873 372.819 320.284 372.819H481.676C486.074 372.819 489.653 369.249 489.653 364.831V307.116C494.416 302.204 503.304 308.081 503.304 308.081C507.949 311.247 513.558 313.098 519.609 313.098C535.642 313.098 548.629 300.08 548.629 284.038C548.629 267.997 535.629 254.979 519.609 254.979Z" fill="#2F5259"/>
<path opacity="0.4" d="M334.013 367.867C334.013 367.867 358.387 363.502 370.086 362.564H374.732C374.732 362.564 376.97 325.79 395.735 324.409L388.956 377.093L410.141 372.832C410.141 372.832 417.234 330.598 432.993 325.217L439.174 339.017C439.174 339.017 449.103 322.962 464.199 322.988L446.917 374.161L405.951 391.623L370.073 389.303L334 367.867H334.013Z" fill="black"/>
<path opacity="0.2" d="M464.875 195.219C465.682 196.209 465.838 197.577 465.89 198.867C466.307 209.409 462.09 220.056 454.569 227.444C441.126 240.645 420.24 242.065 403.7 251.07C389.229 258.954 378.259 273.014 374.133 288.977C372.793 294.164 372.129 299.558 369.982 304.458C365.662 314.349 355.772 320.903 345.4 323.835C335.028 326.767 323.069 325.425 312.294 325.217V342.561C323.069 342.77 339.036 338.13 349.408 335.198C359.78 332.266 369.67 325.712 373.99 315.821C376.137 310.922 376.801 305.514 378.141 300.34C382.267 284.377 388.734 268.74 403.205 260.856C419.745 251.852 445.134 252.008 458.577 238.808C466.099 231.419 482.743 205.839 482.326 195.297L464.875 195.232V195.219Z" fill="white"/>
<path d="M320.857 526.807C321.013 523.419 344.528 424.149 344.528 424.149C357.802 411.469 383.217 412.707 395.085 411.013C423.324 406.987 422.79 398.66 422.79 398.66C422.79 398.66 438.588 399.924 445.511 389.877C449.09 384.677 472.254 323.093 472.254 323.093C472.254 323.093 467.907 317.906 457.132 328.266C446.357 338.639 438.979 363.841 438.979 363.841C438.979 363.841 446.8 329.139 446.943 323.001C447.086 316.864 434.997 318.675 431.158 328.696C427.319 338.717 414.514 371.216 414.514 371.216C411.117 376.637 406.953 380.299 401.474 380.938C401.474 380.938 406.003 330.703 405.99 325.217C405.977 319.731 395.488 320.565 391.012 330.429C386.535 340.294 380.432 367.555 380.432 367.555C380.432 367.555 330.734 365.079 322.184 370.565C305.735 381.133 250.819 526.807 250.819 526.807H320.896H320.857Z" fill="#FDAD6A"/>
<path d="M434.58 393.382C435.231 393.93 442.323 400.198 451.289 396.484C460.269 392.77 471.07 386.606 483.029 381.185C494.988 375.764 496.042 375.308 488.664 371.242C481.298 367.177 469.521 372.103 461.544 374.761C453.567 377.406 446.032 379.661 446.032 379.661L434.567 393.395L434.58 393.382Z" fill="#FDAD6A"/>
<path d="M422.972 398.868C431.041 391.949 439.786 367.802 446.917 323.001" stroke="#E97F3F" stroke-width="0.75" stroke-linecap="round" stroke-linejoin="round"/>
<path d="M385.507 395.22C391.064 394.685 394.773 393.604 397.531 391.284C402.476 387.153 405.951 325.204 405.951 325.204" stroke="#E97F3F" stroke-width="0.75" stroke-linecap="round" stroke-linejoin="round"/>
<path d="M436.207 396.744C441.373 394.933 446.175 388.196 448.765 383.361C451.354 378.527 470.471 329.269 472.241 323.093" stroke="#E97F3F" stroke-width="0.75" stroke-linecap="round" stroke-linejoin="round"/>
</g>
<defs>
<clipPath id="clip0_2_1023">
<rect width="976" height="530" fill="white"/>
</clipPath>
</defs>
</svg>
